%TF.GenerationSoftware,KiCad,Pcbnew,8.0.8*%
%TF.CreationDate,2025-04-16T18:52:08+01:00*%
%TF.ProjectId,Front_panel_Tx,46726f6e-745f-4706-916e-656c5f54782e,rev?*%
%TF.SameCoordinates,Original*%
%TF.FileFunction,Copper,L1,Top*%
%TF.FilePolarity,Positive*%
%FSLAX46Y46*%
G04 Gerber Fmt 4.6, Leading zero omitted, Abs format (unit mm)*
G04 Created by KiCad (PCBNEW 8.0.8) date 2025-04-16 18:52:08*
%MOMM*%
%LPD*%
G01*
G04 APERTURE LIST*
G04 Aperture macros list*
%AMRoundRect*
0 Rectangle with rounded corners*
0 $1 Rounding radius*
0 $2 $3 $4 $5 $6 $7 $8 $9 X,Y pos of 4 corners*
0 Add a 4 corners polygon primitive as box body*
4,1,4,$2,$3,$4,$5,$6,$7,$8,$9,$2,$3,0*
0 Add four circle primitives for the rounded corners*
1,1,$1+$1,$2,$3*
1,1,$1+$1,$4,$5*
1,1,$1+$1,$6,$7*
1,1,$1+$1,$8,$9*
0 Add four rect primitives between the rounded corners*
20,1,$1+$1,$2,$3,$4,$5,0*
20,1,$1+$1,$4,$5,$6,$7,0*
20,1,$1+$1,$6,$7,$8,$9,0*
20,1,$1+$1,$8,$9,$2,$3,0*%
%AMFreePoly0*
4,1,19,0.150000,0.259808,0.229813,0.192836,0.281908,0.102606,0.300000,0.000000,0.281908,-0.102606,0.229813,-0.192836,0.150000,-0.259808,0.052094,-0.295442,-0.052094,-0.295442,-0.150000,-0.259808,-0.229813,-0.192836,-0.281908,-0.102606,-0.300000,0.000000,-0.281908,0.102606,-0.229813,0.192836,-0.150000,0.259808,-0.052094,0.295442,0.052094,0.295442,0.150000,0.259808,0.150000,0.259808,
$1*%
G04 Aperture macros list end*
%TA.AperFunction,EtchedComponent*%
%ADD10C,0.600000*%
%TD*%
%TA.AperFunction,SMDPad,CuDef*%
%ADD11RoundRect,0.225000X-0.225000X-0.250000X0.225000X-0.250000X0.225000X0.250000X-0.225000X0.250000X0*%
%TD*%
%TA.AperFunction,SMDPad,CuDef*%
%ADD12RoundRect,0.087500X0.725000X0.087500X-0.725000X0.087500X-0.725000X-0.087500X0.725000X-0.087500X0*%
%TD*%
%TA.AperFunction,SMDPad,CuDef*%
%ADD13RoundRect,0.225000X0.250000X-0.225000X0.250000X0.225000X-0.250000X0.225000X-0.250000X-0.225000X0*%
%TD*%
%TA.AperFunction,SMDPad,CuDef*%
%ADD14RoundRect,0.225000X-0.250000X0.225000X-0.250000X-0.225000X0.250000X-0.225000X0.250000X0.225000X0*%
%TD*%
%TA.AperFunction,SMDPad,CuDef*%
%ADD15RoundRect,0.200000X0.300000X0.200000X-0.300000X0.200000X-0.300000X-0.200000X0.300000X-0.200000X0*%
%TD*%
%TA.AperFunction,SMDPad,CuDef*%
%ADD16RoundRect,0.250000X-0.350000X-0.650000X0.350000X-0.650000X0.350000X0.650000X-0.350000X0.650000X0*%
%TD*%
%TA.AperFunction,SMDPad,CuDef*%
%ADD17RoundRect,0.150000X-0.150000X-0.625000X0.150000X-0.625000X0.150000X0.625000X-0.150000X0.625000X0*%
%TD*%
%TA.AperFunction,SMDPad,CuDef*%
%ADD18RoundRect,0.218750X0.218750X0.256250X-0.218750X0.256250X-0.218750X-0.256250X0.218750X-0.256250X0*%
%TD*%
%TA.AperFunction,SMDPad,CuDef*%
%ADD19RoundRect,0.200000X0.275000X-0.200000X0.275000X0.200000X-0.275000X0.200000X-0.275000X-0.200000X0*%
%TD*%
%TA.AperFunction,SMDPad,CuDef*%
%ADD20RoundRect,0.200000X-0.275000X0.200000X-0.275000X-0.200000X0.275000X-0.200000X0.275000X0.200000X0*%
%TD*%
%TA.AperFunction,SMDPad,CuDef*%
%ADD21R,1.500000X1.500000*%
%TD*%
%TA.AperFunction,ComponentPad*%
%ADD22C,0.600000*%
%TD*%
%TA.AperFunction,ComponentPad*%
%ADD23FreePoly0,270.000000*%
%TD*%
%TA.AperFunction,ViaPad*%
%ADD24C,0.600000*%
%TD*%
%TA.AperFunction,Conductor*%
%ADD25C,0.600000*%
%TD*%
%TA.AperFunction,Conductor*%
%ADD26C,0.250000*%
%TD*%
%TA.AperFunction,Conductor*%
%ADD27C,0.400000*%
%TD*%
G04 APERTURE END LIST*
D10*
%TO.C,ANT1*%
X104089600Y-68375600D02*
X107089600Y-71375600D01*
%TD*%
D11*
%TO.P,C2,2*%
%TO.N,GND*%
X152845000Y-67300000D03*
%TO.P,C2,1*%
%TO.N,+3.3V*%
X151295000Y-67300000D03*
%TD*%
D12*
%TO.P,Y1,10,CLK0*%
%TO.N,Net-(J2-Pin_1)*%
X149890000Y-71030000D03*
%TO.P,Y1,9,CLK1*%
%TO.N,Net-(Y1-CLK1)*%
X149890000Y-70530000D03*
%TO.P,Y1,8,GND*%
%TO.N,GND*%
X149890000Y-70030000D03*
%TO.P,Y1,7,VDDO*%
%TO.N,+3.3V*%
X149890000Y-69530000D03*
%TO.P,Y1,6,CLK2*%
%TO.N,Net-(Y1-CLK2)*%
X149890000Y-69030000D03*
%TO.P,Y1,5,SDA*%
%TO.N,Net-(J1-Pin_3)*%
X154115000Y-69030000D03*
%TO.P,Y1,4,SCL*%
%TO.N,Net-(J1-Pin_2)*%
X154115000Y-69530000D03*
%TO.P,Y1,3,XB*%
%TO.N,unconnected-(Y1-XB-Pad3)*%
X154115000Y-70030000D03*
%TO.P,Y1,2,XA*%
%TO.N,Net-(Y1-XA)*%
X154115000Y-70530000D03*
%TO.P,Y1,1,VDD*%
%TO.N,+3.3V*%
X154115000Y-71030000D03*
%TD*%
D13*
%TO.P,C1,2*%
%TO.N,GND*%
X152480000Y-72695000D03*
%TO.P,C1,1*%
%TO.N,+3.3V*%
X152480000Y-74245000D03*
%TD*%
D14*
%TO.P,C3,2*%
%TO.N,GND*%
X144570000Y-69215000D03*
%TO.P,C3,1*%
%TO.N,Net-(ANT1-L1)*%
X144570000Y-67665000D03*
%TD*%
D15*
%TO.P,Y2,4,Vcc*%
%TO.N,+3.3V*%
X154210000Y-74740000D03*
%TO.P,Y2,3,OUT*%
%TO.N,Net-(Y1-XA)*%
X154210000Y-72640000D03*
%TO.P,Y2,2,GND*%
%TO.N,GND*%
X155610000Y-72640000D03*
%TO.P,Y2,1,NC*%
%TO.N,unconnected-(Y2-NC-Pad1)*%
X155610000Y-74740000D03*
%TD*%
D16*
%TO.P,J1,MP*%
%TO.N,N/C*%
X155180000Y-60630000D03*
X149580000Y-60630000D03*
D17*
%TO.P,J1,4,Pin_4*%
%TO.N,GND*%
X153880000Y-63155000D03*
%TO.P,J1,3,Pin_3*%
%TO.N,Net-(J1-Pin_3)*%
X152880000Y-63155000D03*
%TO.P,J1,2,Pin_2*%
%TO.N,Net-(J1-Pin_2)*%
X151880000Y-63155000D03*
%TO.P,J1,1,Pin_1*%
%TO.N,+3.3V*%
X150880000Y-63155000D03*
%TD*%
D18*
%TO.P,L1,2,2*%
%TO.N,Net-(ANT1-L1)*%
X144592500Y-66060000D03*
%TO.P,L1,1,1*%
%TO.N,Net-(C5-Pad1)*%
X146167500Y-66060000D03*
%TD*%
D19*
%TO.P,R2,2*%
%TO.N,Net-(Y1-CLK1)*%
X147870000Y-71860000D03*
%TO.P,R2,1*%
%TO.N,Net-(C6-Pad2)*%
X147870000Y-73510000D03*
%TD*%
D18*
%TO.P,L2,2,2*%
%TO.N,Net-(ANT1-L2)*%
X144502500Y-74030000D03*
%TO.P,L2,1,1*%
%TO.N,Net-(C6-Pad2)*%
X146077500Y-74030000D03*
%TD*%
D14*
%TO.P,C4,2*%
%TO.N,Net-(ANT1-L2)*%
X144510000Y-72415000D03*
%TO.P,C4,1*%
%TO.N,GND*%
X144510000Y-70865000D03*
%TD*%
%TO.P,C6,2*%
%TO.N,Net-(C6-Pad2)*%
X146210000Y-72445000D03*
%TO.P,C6,1*%
%TO.N,GND*%
X146210000Y-70895000D03*
%TD*%
%TO.P,C5,2*%
%TO.N,GND*%
X146230000Y-69215000D03*
%TO.P,C5,1*%
%TO.N,Net-(C5-Pad1)*%
X146230000Y-67665000D03*
%TD*%
D20*
%TO.P,R1,2*%
%TO.N,Net-(Y1-CLK2)*%
X147920000Y-68055000D03*
%TO.P,R1,1*%
%TO.N,Net-(C5-Pad1)*%
X147920000Y-66405000D03*
%TD*%
D21*
%TO.P,J2,1,Pin_1*%
%TO.N,Net-(J2-Pin_1)*%
X150160000Y-73300000D03*
%TD*%
D22*
%TO.P,ANT1,3,M*%
%TO.N,GND*%
X141089600Y-69875600D03*
D23*
%TO.P,ANT1,2,L2*%
%TO.N,Net-(ANT1-L2)*%
X139091600Y-71602800D03*
D22*
%TO.P,ANT1,1,L1*%
%TO.N,Net-(ANT1-L1)*%
X107089600Y-71375600D03*
X104089600Y-68375600D03*
X139091600Y-68199200D03*
%TD*%
D24*
%TO.N,GND*%
X156090000Y-71800000D03*
X152850000Y-66260000D03*
X153250000Y-73240000D03*
X151210000Y-70205000D03*
X146230000Y-70050000D03*
X153880000Y-64490000D03*
%TD*%
D25*
%TO.N,+3.3V*%
X151505000Y-71765000D02*
X152200000Y-71070000D01*
X151505000Y-73270000D02*
X151505000Y-71765000D01*
X152480000Y-74245000D02*
X151505000Y-73270000D01*
D26*
X152240000Y-71030000D02*
X152200000Y-71070000D01*
X154115000Y-71030000D02*
X152240000Y-71030000D01*
%TO.N,GND*%
X151035000Y-70030000D02*
X151210000Y-70205000D01*
X149890000Y-70030000D02*
X151035000Y-70030000D01*
%TO.N,Net-(Y1-CLK1)*%
X147870000Y-71460000D02*
X147870000Y-71860000D01*
X148800000Y-70530000D02*
X147870000Y-71460000D01*
X149890000Y-70530000D02*
X148800000Y-70530000D01*
%TO.N,Net-(Y1-CLK2)*%
X148895000Y-69030000D02*
X147920000Y-68055000D01*
X149890000Y-69030000D02*
X148895000Y-69030000D01*
%TO.N,Net-(J1-Pin_3)*%
X154305000Y-68840000D02*
X154305000Y-65895000D01*
X154115000Y-69030000D02*
X154305000Y-68840000D01*
%TO.N,Net-(J1-Pin_2)*%
X153665000Y-67738604D02*
X153665000Y-65891396D01*
X153216712Y-69530000D02*
X152977500Y-69290788D01*
X153665000Y-65891396D02*
X152070000Y-64296396D01*
X154115000Y-69530000D02*
X153216712Y-69530000D01*
X152070000Y-64296396D02*
X152070000Y-63315000D01*
X152977500Y-69290788D02*
X152977500Y-68426104D01*
X152977500Y-68426104D02*
X153665000Y-67738604D01*
%TO.N,+3.3V*%
X152030000Y-69530000D02*
X152200000Y-69700000D01*
X149890000Y-69530000D02*
X152030000Y-69530000D01*
%TO.N,Net-(Y1-XA)*%
X154400000Y-72518004D02*
X154400000Y-72800000D01*
X155252500Y-71665504D02*
X154400000Y-72518004D01*
X155252500Y-70769212D02*
X155252500Y-71665504D01*
X155013288Y-70530000D02*
X155252500Y-70769212D01*
X154115000Y-70530000D02*
X155013288Y-70530000D01*
D27*
%TO.N,GND*%
X153040000Y-67455000D02*
X153035000Y-67460000D01*
X153040000Y-66420000D02*
X153040000Y-67455000D01*
X155800000Y-72010000D02*
X155850000Y-71960000D01*
X155800000Y-72800000D02*
X155800000Y-72010000D01*
X155800000Y-72080000D02*
X155800000Y-72800000D01*
X152895000Y-72855000D02*
X153440000Y-73400000D01*
X152670000Y-72855000D02*
X152895000Y-72855000D01*
D25*
%TO.N,+3.3V*%
X153165000Y-74900000D02*
X154400000Y-74900000D01*
X152670000Y-74405000D02*
X153165000Y-74900000D01*
D26*
%TO.N,Net-(J1-Pin_3)*%
X153070000Y-64660000D02*
X154305000Y-65895000D01*
X153070000Y-63315000D02*
X153070000Y-64660000D01*
D25*
%TO.N,+3.3V*%
X152200000Y-69700000D02*
X152200000Y-71070000D01*
X152200000Y-68175000D02*
X152200000Y-69700000D01*
X151485000Y-67460000D02*
X152200000Y-68175000D01*
X151070000Y-67045000D02*
X151485000Y-67460000D01*
X151070000Y-63315000D02*
X151070000Y-67045000D01*
%TO.N,GND*%
X146420000Y-70210000D02*
X146420000Y-71035000D01*
X154070000Y-63315000D02*
X154070000Y-64650000D01*
X154070000Y-64660000D02*
X154070000Y-63315000D01*
X144760000Y-69375000D02*
X146420000Y-69375000D01*
D26*
X141279600Y-70035600D02*
X144725600Y-70035600D01*
D25*
X146420000Y-71035000D02*
X146400000Y-71055000D01*
X144760000Y-69375000D02*
X144760000Y-70070000D01*
X144700000Y-71025000D02*
X146370000Y-71025000D01*
X146420000Y-69375000D02*
X146420000Y-70030000D01*
X146420000Y-70030000D02*
X146420000Y-70210000D01*
X146370000Y-71025000D02*
X146400000Y-71055000D01*
D26*
X144725600Y-70035600D02*
X144760000Y-70070000D01*
D25*
X144760000Y-70965000D02*
X144700000Y-71025000D01*
X144760000Y-70070000D02*
X144760000Y-70965000D01*
%TO.N,Net-(C5-Pad1)*%
X147765000Y-66220000D02*
X148110000Y-66565000D01*
X146357500Y-67762500D02*
X146420000Y-67825000D01*
X146357500Y-66220000D02*
X146357500Y-67762500D01*
X146357500Y-66220000D02*
X147765000Y-66220000D01*
%TO.N,Net-(C6-Pad2)*%
X146400000Y-72605000D02*
X146400000Y-74057500D01*
X147540000Y-74190000D02*
X148060000Y-73670000D01*
X146267500Y-74190000D02*
X147540000Y-74190000D01*
X146400000Y-74057500D02*
X146267500Y-74190000D01*
D26*
%TO.N,Net-(J2-Pin_1)*%
X150080000Y-71190000D02*
X150080000Y-73310000D01*
X150080000Y-73310000D02*
X150290000Y-73520000D01*
%TO.N,Net-(Y1-CLK1)*%
X148060000Y-71811712D02*
X148060000Y-72020000D01*
D25*
%TO.N,Net-(ANT1-L1)*%
X144782500Y-67802500D02*
X144760000Y-67825000D01*
X144782500Y-66220000D02*
X144782500Y-67802500D01*
D26*
X139281600Y-68359200D02*
X139820000Y-67820800D01*
X139820000Y-67820800D02*
X139824200Y-67825000D01*
X139824200Y-67825000D02*
X144760000Y-67825000D01*
%TO.N,Net-(ANT1-L2)*%
X139281600Y-71762800D02*
X140093800Y-72575000D01*
D25*
X144700000Y-72575000D02*
X144700000Y-74182500D01*
X144700000Y-74182500D02*
X144692500Y-74190000D01*
D26*
X140093800Y-72575000D02*
X144700000Y-72575000D01*
%TD*%
%TA.AperFunction,Conductor*%
%TO.N,GND*%
G36*
X157253039Y-58699685D02*
G01*
X157298794Y-58752489D01*
X157310000Y-58804000D01*
X157310000Y-75058638D01*
X157290315Y-75125677D01*
X157273681Y-75146319D01*
X157036319Y-75383681D01*
X156974996Y-75417166D01*
X156948638Y-75420000D01*
X156658238Y-75420000D01*
X156591199Y-75400315D01*
X156545444Y-75347511D01*
X156535500Y-75278353D01*
X156550467Y-75236475D01*
X156550400Y-75236445D01*
X156550782Y-75235595D01*
X156552121Y-75231850D01*
X156553478Y-75229606D01*
X156604086Y-75067196D01*
X156610500Y-74996616D01*
X156610500Y-74483384D01*
X156604086Y-74412804D01*
X156553478Y-74250394D01*
X156465472Y-74104815D01*
X156465470Y-74104813D01*
X156465469Y-74104811D01*
X156345188Y-73984530D01*
X156199606Y-73896522D01*
X156037196Y-73845914D01*
X156030508Y-73845306D01*
X156022772Y-73844603D01*
X155957790Y-73818929D01*
X155917005Y-73762198D01*
X155910000Y-73721112D01*
X155910000Y-73658384D01*
X155929685Y-73591345D01*
X155982489Y-73545590D01*
X156022781Y-73534893D01*
X156037102Y-73533591D01*
X156037107Y-73533590D01*
X156199396Y-73483018D01*
X156344877Y-73395072D01*
X156465072Y-73274877D01*
X156553019Y-73129395D01*
X156603590Y-72967106D01*
X156610000Y-72896572D01*
X156610000Y-72890000D01*
X155734000Y-72890000D01*
X155666961Y-72870315D01*
X155621206Y-72817511D01*
X155610000Y-72766000D01*
X155610000Y-72514000D01*
X155629685Y-72446961D01*
X155682489Y-72401206D01*
X155734000Y-72390000D01*
X156609999Y-72390000D01*
X156609999Y-72383417D01*
X156603591Y-72312897D01*
X156603590Y-72312892D01*
X156553018Y-72150603D01*
X156465072Y-72005122D01*
X156344877Y-71884927D01*
X156199395Y-71796980D01*
X156199396Y-71796980D01*
X156037105Y-71746409D01*
X156037107Y-71746409D01*
X155990777Y-71742199D01*
X155925794Y-71716528D01*
X155885006Y-71659799D01*
X155878000Y-71618708D01*
X155878000Y-70707606D01*
X155874661Y-70690823D01*
X155874660Y-70690816D01*
X155862816Y-70631265D01*
X155862816Y-70631264D01*
X155853964Y-70586765D01*
X155853963Y-70586764D01*
X155853963Y-70586760D01*
X155818233Y-70500500D01*
X155806812Y-70472927D01*
X155777151Y-70428537D01*
X155738358Y-70370479D01*
X155738356Y-70370476D01*
X155648137Y-70280257D01*
X155648106Y-70280228D01*
X155503486Y-70135608D01*
X155503466Y-70135586D01*
X155464319Y-70096439D01*
X155430834Y-70035116D01*
X155428000Y-70008758D01*
X155428000Y-69903966D01*
X155427999Y-69903954D01*
X155413810Y-69796178D01*
X155413810Y-69763821D01*
X155428000Y-69656040D01*
X155428000Y-69403960D01*
X155413810Y-69296178D01*
X155413810Y-69263821D01*
X155428000Y-69156040D01*
X155428000Y-68903960D01*
X155412865Y-68789001D01*
X155353617Y-68645963D01*
X155259367Y-68523133D01*
X155136537Y-68428883D01*
X155136536Y-68428882D01*
X155136537Y-68428882D01*
X155007048Y-68375247D01*
X154952644Y-68331406D01*
X154930579Y-68265112D01*
X154930500Y-68260686D01*
X154930500Y-65833393D01*
X154930499Y-65833389D01*
X154906464Y-65712555D01*
X154906463Y-65712548D01*
X154880359Y-65649528D01*
X154859312Y-65598715D01*
X154834460Y-65561522D01*
X154790858Y-65496267D01*
X154790856Y-65496264D01*
X154700637Y-65406045D01*
X154700606Y-65406016D01*
X153936271Y-64641681D01*
X153902786Y-64580358D01*
X153907770Y-64510666D01*
X153949642Y-64454733D01*
X154015106Y-64430316D01*
X154023952Y-64430000D01*
X154095634Y-64430000D01*
X154095649Y-64429999D01*
X154132489Y-64427100D01*
X154132495Y-64427099D01*
X154290193Y-64381283D01*
X154290196Y-64381282D01*
X154431552Y-64297685D01*
X154431561Y-64297678D01*
X154547678Y-64181561D01*
X154547685Y-64181552D01*
X154631282Y-64040196D01*
X154631283Y-64040193D01*
X154677099Y-63882495D01*
X154677100Y-63882489D01*
X154679999Y-63845649D01*
X154680000Y-63845634D01*
X154680000Y-63405000D01*
X154004000Y-63405000D01*
X153936961Y-63385315D01*
X153891206Y-63332511D01*
X153880000Y-63281000D01*
X153880000Y-63155000D01*
X153804500Y-63155000D01*
X153737461Y-63135315D01*
X153691706Y-63082511D01*
X153680500Y-63031000D01*
X153680500Y-62464313D01*
X153680499Y-62464298D01*
X153677598Y-62427432D01*
X153677597Y-62427426D01*
X153634924Y-62280545D01*
X153630000Y-62245950D01*
X153630000Y-61882703D01*
X153627504Y-61882900D01*
X153469806Y-61928716D01*
X153469798Y-61928719D01*
X153443608Y-61944208D01*
X153375884Y-61961388D01*
X153317371Y-61944207D01*
X153290398Y-61928256D01*
X153290393Y-61928254D01*
X153132573Y-61882402D01*
X153132567Y-61882401D01*
X153095701Y-61879500D01*
X153095694Y-61879500D01*
X152664306Y-61879500D01*
X152664298Y-61879500D01*
X152627432Y-61882401D01*
X152627426Y-61882402D01*
X152469606Y-61928253D01*
X152443119Y-61943918D01*
X152375394Y-61961098D01*
X152316881Y-61943918D01*
X152290393Y-61928253D01*
X152132573Y-61882402D01*
X152132567Y-61882401D01*
X152095701Y-61879500D01*
X152095694Y-61879500D01*
X151664306Y-61879500D01*
X151664298Y-61879500D01*
X151627432Y-61882401D01*
X151627426Y-61882402D01*
X151469606Y-61928253D01*
X151443119Y-61943918D01*
X151375394Y-61961098D01*
X151316881Y-61943918D01*
X151290393Y-61928253D01*
X151132573Y-61882402D01*
X151132567Y-61882401D01*
X151095701Y-61879500D01*
X151095694Y-61879500D01*
X150664306Y-61879500D01*
X150664181Y-61879500D01*
X150597142Y-61859815D01*
X150551387Y-61807011D01*
X150541443Y-61737853D01*
X150558641Y-61690405D01*
X150614814Y-61599334D01*
X150669999Y-61432797D01*
X150680500Y-61330009D01*
X150680499Y-59929992D01*
X150680498Y-59929983D01*
X154079500Y-59929983D01*
X154079500Y-61330001D01*
X154079501Y-61330018D01*
X154090000Y-61432796D01*
X154090001Y-61432799D01*
X154145185Y-61599331D01*
X154145186Y-61599334D01*
X154201431Y-61690523D01*
X154219871Y-61757914D01*
X154198948Y-61824577D01*
X154145306Y-61869347D01*
X154144266Y-61869520D01*
X154130000Y-61882703D01*
X154130000Y-62905000D01*
X154680000Y-62905000D01*
X154680000Y-62464365D01*
X154679999Y-62464350D01*
X154677100Y-62427510D01*
X154677099Y-62427504D01*
X154631284Y-62269806D01*
X154596144Y-62210389D01*
X154578961Y-62142665D01*
X154601121Y-62076402D01*
X154655586Y-62032639D01*
X154715477Y-62023909D01*
X154779991Y-62030500D01*
X155580008Y-62030499D01*
X155580016Y-62030498D01*
X155580019Y-62030498D01*
X155644520Y-62023909D01*
X155682797Y-62019999D01*
X155849334Y-61964814D01*
X155998656Y-61872712D01*
X156122712Y-61748656D01*
X156214814Y-61599334D01*
X156269999Y-61432797D01*
X156280500Y-61330009D01*
X156280499Y-59929992D01*
X156269999Y-59827203D01*
X156214814Y-59660666D01*
X156122712Y-59511344D01*
X155998656Y-59387288D01*
X155849334Y-59295186D01*
X155682797Y-59240001D01*
X155682795Y-59240000D01*
X155580010Y-59229500D01*
X154779998Y-59229500D01*
X154779980Y-59229501D01*
X154677203Y-59240000D01*
X154677200Y-59240001D01*
X154510668Y-59295185D01*
X154510663Y-59295187D01*
X154361342Y-59387289D01*
X154237289Y-59511342D01*
X154145187Y-59660663D01*
X154145186Y-59660666D01*
X154090001Y-59827203D01*
X154090001Y-59827204D01*
X154090000Y-59827204D01*
X154079500Y-59929983D01*
X150680498Y-59929983D01*
X150669999Y-59827203D01*
X150614814Y-59660666D01*
X150522712Y-59511344D01*
X150398656Y-59387288D01*
X150249334Y-59295186D01*
X150082797Y-59240001D01*
X150082795Y-59240000D01*
X149980010Y-59229500D01*
X149179998Y-59229500D01*
X149179980Y-59229501D01*
X149077203Y-59240000D01*
X149077200Y-59240001D01*
X148910668Y-59295185D01*
X148910663Y-59295187D01*
X148761342Y-59387289D01*
X148637289Y-59511342D01*
X148545187Y-59660663D01*
X148545186Y-59660666D01*
X148490001Y-59827203D01*
X148490001Y-59827204D01*
X148490000Y-59827204D01*
X148479500Y-59929983D01*
X148479500Y-61330001D01*
X148479501Y-61330018D01*
X148490000Y-61432796D01*
X148490001Y-61432799D01*
X148545185Y-61599331D01*
X148545186Y-61599334D01*
X148637288Y-61748656D01*
X148761344Y-61872712D01*
X148910666Y-61964814D01*
X149077203Y-62019999D01*
X149179991Y-62030500D01*
X149980008Y-62030499D01*
X150043906Y-62023971D01*
X150112595Y-62036740D01*
X150163480Y-62084620D01*
X150180401Y-62152410D01*
X150163238Y-62210448D01*
X150128256Y-62269601D01*
X150128254Y-62269606D01*
X150082402Y-62427426D01*
X150082401Y-62427432D01*
X150079500Y-62464298D01*
X150079500Y-63845701D01*
X150082401Y-63882567D01*
X150082402Y-63882573D01*
X150128254Y-64040393D01*
X150128255Y-64040396D01*
X150128256Y-64040398D01*
X150211919Y-64181865D01*
X150233181Y-64203127D01*
X150266666Y-64264448D01*
X150269500Y-64290808D01*
X150269500Y-67123846D01*
X150300260Y-67278488D01*
X150300263Y-67278498D01*
X150335061Y-67362508D01*
X150344500Y-67409959D01*
X150344500Y-67598336D01*
X150344501Y-67598355D01*
X150354650Y-67697707D01*
X150354651Y-67697710D01*
X150407996Y-67858694D01*
X150408001Y-67858705D01*
X150497029Y-68003040D01*
X150497032Y-68003044D01*
X150616956Y-68122968D01*
X150620189Y-68124962D01*
X150621940Y-68126909D01*
X150622623Y-68127449D01*
X150622530Y-68127565D01*
X150666912Y-68176909D01*
X150678135Y-68245872D01*
X150650291Y-68309954D01*
X150592223Y-68348810D01*
X150555091Y-68354500D01*
X149155452Y-68354500D01*
X149088413Y-68334815D01*
X149067771Y-68318181D01*
X148931819Y-68182229D01*
X148898334Y-68120906D01*
X148895500Y-68094548D01*
X148895500Y-67798386D01*
X148889086Y-67727807D01*
X148889086Y-67727804D01*
X148838478Y-67565394D01*
X148750472Y-67419815D01*
X148750470Y-67419813D01*
X148750469Y-67419811D01*
X148656549Y-67325891D01*
X148623064Y-67264568D01*
X148628048Y-67194876D01*
X148656547Y-67150530D01*
X148731789Y-67075289D01*
X148819394Y-66944179D01*
X148879738Y-66798497D01*
X148910500Y-66643843D01*
X148910500Y-66486158D01*
X148897882Y-66422720D01*
X148895500Y-66398530D01*
X148895500Y-66148386D01*
X148895500Y-66148384D01*
X148889086Y-66077804D01*
X148838478Y-65915394D01*
X148750472Y-65769815D01*
X148750470Y-65769813D01*
X148750469Y-65769811D01*
X148630188Y-65649530D01*
X148484606Y-65561522D01*
X148484600Y-65561520D01*
X148322196Y-65510914D01*
X148322194Y-65510913D01*
X148322192Y-65510913D01*
X148272778Y-65506423D01*
X148251616Y-65504500D01*
X148251613Y-65504500D01*
X148154102Y-65504500D01*
X148106650Y-65495061D01*
X147998498Y-65450263D01*
X147998488Y-65450260D01*
X147843845Y-65419500D01*
X147843842Y-65419500D01*
X147063513Y-65419500D01*
X146996474Y-65399815D01*
X146957975Y-65360597D01*
X146954283Y-65354612D01*
X146954280Y-65354608D01*
X146835391Y-65235719D01*
X146835387Y-65235716D01*
X146692295Y-65147455D01*
X146692289Y-65147452D01*
X146692287Y-65147451D01*
X146532685Y-65094564D01*
X146532683Y-65094563D01*
X146434181Y-65084500D01*
X146434174Y-65084500D01*
X145900826Y-65084500D01*
X145900818Y-65084500D01*
X145802316Y-65094563D01*
X145802315Y-65094564D01*
X145723219Y-65120773D01*
X145642715Y-65147450D01*
X145642710Y-65147452D01*
X145568596Y-65193167D01*
X145513121Y-65227385D01*
X145509097Y-65229867D01*
X145441705Y-65248307D01*
X145375041Y-65227385D01*
X145330271Y-65173743D01*
X145320000Y-65124328D01*
X145320000Y-58804000D01*
X145339685Y-58736961D01*
X145392489Y-58691206D01*
X145444000Y-58680000D01*
X157186000Y-58680000D01*
X157253039Y-58699685D01*
G37*
%TD.AperFunction*%
%TA.AperFunction,Conductor*%
G36*
X153471108Y-73393230D02*
G01*
X153474812Y-73395469D01*
X153474815Y-73395472D01*
X153620394Y-73483478D01*
X153782804Y-73534086D01*
X153797222Y-73535396D01*
X153862205Y-73561067D01*
X153902993Y-73617795D01*
X153910000Y-73658887D01*
X153910000Y-73721112D01*
X153890315Y-73788151D01*
X153837511Y-73833906D01*
X153797228Y-73844603D01*
X153787156Y-73845518D01*
X153782804Y-73845914D01*
X153698152Y-73872292D01*
X153620390Y-73896523D01*
X153614226Y-73900250D01*
X153546670Y-73918084D01*
X153480197Y-73896564D01*
X153435912Y-73842521D01*
X153432374Y-73833135D01*
X153417468Y-73788151D01*
X153392003Y-73711303D01*
X153302968Y-73566956D01*
X153301418Y-73564443D01*
X153282978Y-73497051D01*
X153303900Y-73430387D01*
X153357542Y-73385617D01*
X153426873Y-73376956D01*
X153471108Y-73393230D01*
G37*
%TD.AperFunction*%
%TA.AperFunction,Conductor*%
G36*
X147363008Y-68900850D02*
G01*
X147517804Y-68949086D01*
X147588384Y-68955500D01*
X147884548Y-68955500D01*
X147951587Y-68975185D01*
X147972229Y-68991819D01*
X148406016Y-69425606D01*
X148406045Y-69425637D01*
X148496263Y-69515855D01*
X148496268Y-69515859D01*
X148521889Y-69532978D01*
X148566695Y-69586589D01*
X148577000Y-69636081D01*
X148577000Y-69656033D01*
X148577001Y-69656049D01*
X148591440Y-69765723D01*
X148591440Y-69798092D01*
X148581116Y-69876517D01*
X148552850Y-69940414D01*
X148508921Y-69972492D01*
X148509093Y-69972813D01*
X148506815Y-69974030D01*
X148505637Y-69974891D01*
X148503720Y-69975684D01*
X148503717Y-69975686D01*
X148401266Y-70044141D01*
X148401263Y-70044144D01*
X147506399Y-70939009D01*
X147455608Y-70969713D01*
X147305397Y-71016520D01*
X147159811Y-71104530D01*
X147159810Y-71104531D01*
X147155661Y-71108681D01*
X147094338Y-71142166D01*
X147067980Y-71145000D01*
X146334000Y-71145000D01*
X146266961Y-71125315D01*
X146221206Y-71072511D01*
X146210000Y-71021000D01*
X146210000Y-70895000D01*
X146084000Y-70895000D01*
X146016961Y-70875315D01*
X145971206Y-70822511D01*
X145960000Y-70771000D01*
X145960000Y-70291067D01*
X146460000Y-70291067D01*
X146460000Y-70645000D01*
X147184999Y-70645000D01*
X147184999Y-70621692D01*
X147184998Y-70621677D01*
X147174855Y-70522392D01*
X147121547Y-70361518D01*
X147121542Y-70361507D01*
X147032575Y-70217271D01*
X147032572Y-70217267D01*
X146967986Y-70152681D01*
X146934501Y-70091358D01*
X146939485Y-70021666D01*
X146967986Y-69977319D01*
X147052572Y-69892732D01*
X147052575Y-69892728D01*
X147141542Y-69748492D01*
X147141547Y-69748481D01*
X147194855Y-69587606D01*
X147204999Y-69488322D01*
X147205000Y-69488309D01*
X147205000Y-69465000D01*
X146480000Y-69465000D01*
X146480000Y-70223638D01*
X146460315Y-70290677D01*
X146460000Y-70291067D01*
X145960000Y-70291067D01*
X145960000Y-69886362D01*
X145979685Y-69819323D01*
X145980000Y-69818932D01*
X145980000Y-69339000D01*
X145999685Y-69271961D01*
X146052489Y-69226206D01*
X146104000Y-69215000D01*
X146230000Y-69215000D01*
X146230000Y-69089000D01*
X146249685Y-69021961D01*
X146302489Y-68976206D01*
X146354000Y-68965000D01*
X147204997Y-68965000D01*
X147238441Y-68931556D01*
X147299764Y-68898071D01*
X147363008Y-68900850D01*
G37*
%TD.AperFunction*%
%TA.AperFunction,Conductor*%
G36*
X152075703Y-65187135D02*
G01*
X152082181Y-65193167D01*
X153003181Y-66114167D01*
X153036666Y-66175490D01*
X153039500Y-66201848D01*
X153039500Y-67176000D01*
X153019815Y-67243039D01*
X152967011Y-67288794D01*
X152915500Y-67300000D01*
X152719000Y-67300000D01*
X152651961Y-67280315D01*
X152606206Y-67227511D01*
X152595000Y-67176000D01*
X152595000Y-66324999D01*
X152571693Y-66325000D01*
X152571674Y-66325001D01*
X152472392Y-66335144D01*
X152311518Y-66388452D01*
X152311507Y-66388457D01*
X152167271Y-66477424D01*
X152167264Y-66477430D01*
X152158028Y-66486665D01*
X152096703Y-66520146D01*
X152027011Y-66515157D01*
X151982672Y-66486659D01*
X151973044Y-66477031D01*
X151929402Y-66450112D01*
X151882678Y-66398163D01*
X151870500Y-66344574D01*
X151870500Y-65280848D01*
X151890185Y-65213809D01*
X151942989Y-65168054D01*
X152012147Y-65158110D01*
X152075703Y-65187135D01*
G37*
%TD.AperFunction*%
%TD*%
M02*
