%TF.GenerationSoftware,KiCad,Pcbnew,8.0.8*%
%TF.CreationDate,2025-04-16T18:52:08+01:00*%
%TF.ProjectId,Front_panel_Tx,46726f6e-745f-4706-916e-656c5f54782e,rev?*%
%TF.SameCoordinates,Original*%
%TF.FileFunction,Soldermask,Top*%
%TF.FilePolarity,Negative*%
%FSLAX46Y46*%
G04 Gerber Fmt 4.6, Leading zero omitted, Abs format (unit mm)*
G04 Created by KiCad (PCBNEW 8.0.8) date 2025-04-16 18:52:08*
%MOMM*%
%LPD*%
G01*
G04 APERTURE LIST*
G04 Aperture macros list*
%AMRoundRect*
0 Rectangle with rounded corners*
0 $1 Rounding radius*
0 $2 $3 $4 $5 $6 $7 $8 $9 X,Y pos of 4 corners*
0 Add a 4 corners polygon primitive as box body*
4,1,4,$2,$3,$4,$5,$6,$7,$8,$9,$2,$3,0*
0 Add four circle primitives for the rounded corners*
1,1,$1+$1,$2,$3*
1,1,$1+$1,$4,$5*
1,1,$1+$1,$6,$7*
1,1,$1+$1,$8,$9*
0 Add four rect primitives between the rounded corners*
20,1,$1+$1,$2,$3,$4,$5,0*
20,1,$1+$1,$4,$5,$6,$7,0*
20,1,$1+$1,$6,$7,$8,$9,0*
20,1,$1+$1,$8,$9,$2,$3,0*%
G04 Aperture macros list end*
%ADD10C,2.100000*%
%ADD11RoundRect,0.225000X-0.225000X-0.250000X0.225000X-0.250000X0.225000X0.250000X-0.225000X0.250000X0*%
%ADD12RoundRect,0.087500X0.725000X0.087500X-0.725000X0.087500X-0.725000X-0.087500X0.725000X-0.087500X0*%
%ADD13RoundRect,0.225000X0.250000X-0.225000X0.250000X0.225000X-0.250000X0.225000X-0.250000X-0.225000X0*%
%ADD14RoundRect,0.225000X-0.250000X0.225000X-0.250000X-0.225000X0.250000X-0.225000X0.250000X0.225000X0*%
%ADD15RoundRect,0.200000X0.300000X0.200000X-0.300000X0.200000X-0.300000X-0.200000X0.300000X-0.200000X0*%
%ADD16RoundRect,0.250000X-0.350000X-0.650000X0.350000X-0.650000X0.350000X0.650000X-0.350000X0.650000X0*%
%ADD17RoundRect,0.150000X-0.150000X-0.625000X0.150000X-0.625000X0.150000X0.625000X-0.150000X0.625000X0*%
%ADD18RoundRect,0.218750X0.218750X0.256250X-0.218750X0.256250X-0.218750X-0.256250X0.218750X-0.256250X0*%
%ADD19RoundRect,0.200000X0.275000X-0.200000X0.275000X0.200000X-0.275000X0.200000X-0.275000X-0.200000X0*%
%ADD20RoundRect,0.200000X-0.275000X0.200000X-0.275000X-0.200000X0.275000X-0.200000X0.275000X0.200000X0*%
%ADD21R,1.500000X1.500000*%
G04 APERTURE END LIST*
D10*
%TO.C,H6*%
X146500000Y-46500000D03*
%TD*%
%TO.C,H5*%
X114500000Y-46500000D03*
%TD*%
%TO.C,H4*%
X153500000Y-147500000D03*
%TD*%
%TO.C,H3*%
X107500000Y-147500000D03*
%TD*%
%TO.C,H2*%
X158500000Y-92500000D03*
%TD*%
%TO.C,H1*%
X102500000Y-92500000D03*
%TD*%
D11*
%TO.C,C2*%
X152845000Y-67300000D03*
X151295000Y-67300000D03*
%TD*%
D12*
%TO.C,Y1*%
X149890000Y-71030000D03*
X149890000Y-70530000D03*
X149890000Y-70030000D03*
X149890000Y-69530000D03*
X149890000Y-69030000D03*
X154115000Y-69030000D03*
X154115000Y-69530000D03*
X154115000Y-70030000D03*
X154115000Y-70530000D03*
X154115000Y-71030000D03*
%TD*%
D13*
%TO.C,C1*%
X152480000Y-72695000D03*
X152480000Y-74245000D03*
%TD*%
D14*
%TO.C,C3*%
X144570000Y-69215000D03*
X144570000Y-67665000D03*
%TD*%
D15*
%TO.C,Y2*%
X154210000Y-74740000D03*
X154210000Y-72640000D03*
X155610000Y-72640000D03*
X155610000Y-74740000D03*
%TD*%
D16*
%TO.C,J1*%
X155180000Y-60630000D03*
X149580000Y-60630000D03*
D17*
X153880000Y-63155000D03*
X152880000Y-63155000D03*
X151880000Y-63155000D03*
X150880000Y-63155000D03*
%TD*%
D18*
%TO.C,L1*%
X144592500Y-66060000D03*
X146167500Y-66060000D03*
%TD*%
D19*
%TO.C,R2*%
X147870000Y-71860000D03*
X147870000Y-73510000D03*
%TD*%
D18*
%TO.C,L2*%
X144502500Y-74030000D03*
X146077500Y-74030000D03*
%TD*%
D14*
%TO.C,C4*%
X144510000Y-72415000D03*
X144510000Y-70865000D03*
%TD*%
%TO.C,C6*%
X146210000Y-72445000D03*
X146210000Y-70895000D03*
%TD*%
%TO.C,C5*%
X146230000Y-69215000D03*
X146230000Y-67665000D03*
%TD*%
D20*
%TO.C,R1*%
X147920000Y-68055000D03*
X147920000Y-66405000D03*
%TD*%
D21*
%TO.C,J2*%
X150160000Y-73300000D03*
%TD*%
M02*
