%TF.GenerationSoftware,KiCad,Pcbnew,8.0.8*%
%TF.CreationDate,2025-04-16T18:52:08+01:00*%
%TF.ProjectId,Front_panel_Tx,46726f6e-745f-4706-916e-656c5f54782e,rev?*%
%TF.SameCoordinates,Original*%
%TF.FileFunction,Legend,Bot*%
%TF.FilePolarity,Positive*%
%FSLAX46Y46*%
G04 Gerber Fmt 4.6, Leading zero omitted, Abs format (unit mm)*
G04 Created by KiCad (PCBNEW 8.0.8) date 2025-04-16 18:52:08*
%MOMM*%
%LPD*%
G01*
G04 APERTURE LIST*
%ADD10C,0.300000*%
%ADD11C,1.000000*%
%ADD12C,0.500000*%
%ADD13C,0.000000*%
%ADD14C,2.100000*%
G04 APERTURE END LIST*
D10*
X157639774Y-132580828D02*
X157139774Y-134080828D01*
X157139774Y-134080828D02*
X156639774Y-132580828D01*
X155925489Y-134080828D02*
X156068346Y-134009400D01*
X156068346Y-134009400D02*
X156139775Y-133937971D01*
X156139775Y-133937971D02*
X156211203Y-133795114D01*
X156211203Y-133795114D02*
X156211203Y-133366542D01*
X156211203Y-133366542D02*
X156139775Y-133223685D01*
X156139775Y-133223685D02*
X156068346Y-133152257D01*
X156068346Y-133152257D02*
X155925489Y-133080828D01*
X155925489Y-133080828D02*
X155711203Y-133080828D01*
X155711203Y-133080828D02*
X155568346Y-133152257D01*
X155568346Y-133152257D02*
X155496918Y-133223685D01*
X155496918Y-133223685D02*
X155425489Y-133366542D01*
X155425489Y-133366542D02*
X155425489Y-133795114D01*
X155425489Y-133795114D02*
X155496918Y-133937971D01*
X155496918Y-133937971D02*
X155568346Y-134009400D01*
X155568346Y-134009400D02*
X155711203Y-134080828D01*
X155711203Y-134080828D02*
X155925489Y-134080828D01*
X154568346Y-134080828D02*
X154711203Y-134009400D01*
X154711203Y-134009400D02*
X154782632Y-133866542D01*
X154782632Y-133866542D02*
X154782632Y-132580828D01*
X152854061Y-133509400D02*
X151711204Y-133509400D01*
X152282632Y-134080828D02*
X152282632Y-132937971D01*
D11*
X156339248Y-56618000D02*
X155482106Y-56903714D01*
X155482106Y-56903714D02*
X154053534Y-56903714D01*
X154053534Y-56903714D02*
X153482106Y-56618000D01*
X153482106Y-56618000D02*
X153196391Y-56332285D01*
X153196391Y-56332285D02*
X152910677Y-55760857D01*
X152910677Y-55760857D02*
X152910677Y-55189428D01*
X152910677Y-55189428D02*
X153196391Y-54618000D01*
X153196391Y-54618000D02*
X153482106Y-54332285D01*
X153482106Y-54332285D02*
X154053534Y-54046571D01*
X154053534Y-54046571D02*
X155196391Y-53760857D01*
X155196391Y-53760857D02*
X155767820Y-53475142D01*
X155767820Y-53475142D02*
X156053534Y-53189428D01*
X156053534Y-53189428D02*
X156339248Y-52618000D01*
X156339248Y-52618000D02*
X156339248Y-52046571D01*
X156339248Y-52046571D02*
X156053534Y-51475142D01*
X156053534Y-51475142D02*
X155767820Y-51189428D01*
X155767820Y-51189428D02*
X155196391Y-50903714D01*
X155196391Y-50903714D02*
X153767820Y-50903714D01*
X153767820Y-50903714D02*
X152910677Y-51189428D01*
X147767820Y-56618000D02*
X148339248Y-56903714D01*
X148339248Y-56903714D02*
X149482105Y-56903714D01*
X149482105Y-56903714D02*
X150053534Y-56618000D01*
X150053534Y-56618000D02*
X150339248Y-56332285D01*
X150339248Y-56332285D02*
X150624962Y-55760857D01*
X150624962Y-55760857D02*
X150624962Y-54046571D01*
X150624962Y-54046571D02*
X150339248Y-53475142D01*
X150339248Y-53475142D02*
X150053534Y-53189428D01*
X150053534Y-53189428D02*
X149482105Y-52903714D01*
X149482105Y-52903714D02*
X148339248Y-52903714D01*
X148339248Y-52903714D02*
X147767820Y-53189428D01*
X144339248Y-56903714D02*
X144910677Y-56618000D01*
X144910677Y-56618000D02*
X145196391Y-56332285D01*
X145196391Y-56332285D02*
X145482105Y-55760857D01*
X145482105Y-55760857D02*
X145482105Y-54046571D01*
X145482105Y-54046571D02*
X145196391Y-53475142D01*
X145196391Y-53475142D02*
X144910677Y-53189428D01*
X144910677Y-53189428D02*
X144339248Y-52903714D01*
X144339248Y-52903714D02*
X143482105Y-52903714D01*
X143482105Y-52903714D02*
X142910677Y-53189428D01*
X142910677Y-53189428D02*
X142624963Y-53475142D01*
X142624963Y-53475142D02*
X142339248Y-54046571D01*
X142339248Y-54046571D02*
X142339248Y-55760857D01*
X142339248Y-55760857D02*
X142624963Y-56332285D01*
X142624963Y-56332285D02*
X142910677Y-56618000D01*
X142910677Y-56618000D02*
X143482105Y-56903714D01*
X143482105Y-56903714D02*
X144339248Y-56903714D01*
X137196392Y-52903714D02*
X137196392Y-56903714D01*
X139767820Y-52903714D02*
X139767820Y-56046571D01*
X139767820Y-56046571D02*
X139482106Y-56618000D01*
X139482106Y-56618000D02*
X138910677Y-56903714D01*
X138910677Y-56903714D02*
X138053534Y-56903714D01*
X138053534Y-56903714D02*
X137482106Y-56618000D01*
X137482106Y-56618000D02*
X137196392Y-56332285D01*
X135196392Y-52903714D02*
X132910678Y-52903714D01*
X134339249Y-50903714D02*
X134339249Y-56046571D01*
X134339249Y-56046571D02*
X134053535Y-56618000D01*
X134053535Y-56618000D02*
X133482106Y-56903714D01*
X133482106Y-56903714D02*
X132910678Y-56903714D01*
X122910678Y-56903714D02*
X124910678Y-54046571D01*
X126339249Y-56903714D02*
X126339249Y-50903714D01*
X126339249Y-50903714D02*
X124053535Y-50903714D01*
X124053535Y-50903714D02*
X123482106Y-51189428D01*
X123482106Y-51189428D02*
X123196392Y-51475142D01*
X123196392Y-51475142D02*
X122910678Y-52046571D01*
X122910678Y-52046571D02*
X122910678Y-52903714D01*
X122910678Y-52903714D02*
X123196392Y-53475142D01*
X123196392Y-53475142D02*
X123482106Y-53760857D01*
X123482106Y-53760857D02*
X124053535Y-54046571D01*
X124053535Y-54046571D02*
X126339249Y-54046571D01*
X117767821Y-56903714D02*
X117767821Y-53760857D01*
X117767821Y-53760857D02*
X118053535Y-53189428D01*
X118053535Y-53189428D02*
X118624963Y-52903714D01*
X118624963Y-52903714D02*
X119767821Y-52903714D01*
X119767821Y-52903714D02*
X120339249Y-53189428D01*
X117767821Y-56618000D02*
X118339249Y-56903714D01*
X118339249Y-56903714D02*
X119767821Y-56903714D01*
X119767821Y-56903714D02*
X120339249Y-56618000D01*
X120339249Y-56618000D02*
X120624963Y-56046571D01*
X120624963Y-56046571D02*
X120624963Y-55475142D01*
X120624963Y-55475142D02*
X120339249Y-54903714D01*
X120339249Y-54903714D02*
X119767821Y-54618000D01*
X119767821Y-54618000D02*
X118339249Y-54618000D01*
X118339249Y-54618000D02*
X117767821Y-54332285D01*
X112339250Y-56903714D02*
X112339250Y-50903714D01*
X112339250Y-56618000D02*
X112910678Y-56903714D01*
X112910678Y-56903714D02*
X114053535Y-56903714D01*
X114053535Y-56903714D02*
X114624964Y-56618000D01*
X114624964Y-56618000D02*
X114910678Y-56332285D01*
X114910678Y-56332285D02*
X115196392Y-55760857D01*
X115196392Y-55760857D02*
X115196392Y-54046571D01*
X115196392Y-54046571D02*
X114910678Y-53475142D01*
X114910678Y-53475142D02*
X114624964Y-53189428D01*
X114624964Y-53189428D02*
X114053535Y-52903714D01*
X114053535Y-52903714D02*
X112910678Y-52903714D01*
X112910678Y-52903714D02*
X112339250Y-53189428D01*
X109482107Y-56903714D02*
X109482107Y-52903714D01*
X109482107Y-50903714D02*
X109767821Y-51189428D01*
X109767821Y-51189428D02*
X109482107Y-51475142D01*
X109482107Y-51475142D02*
X109196393Y-51189428D01*
X109196393Y-51189428D02*
X109482107Y-50903714D01*
X109482107Y-50903714D02*
X109482107Y-51475142D01*
X105767821Y-56903714D02*
X106339250Y-56618000D01*
X106339250Y-56618000D02*
X106624964Y-56332285D01*
X106624964Y-56332285D02*
X106910678Y-55760857D01*
X106910678Y-55760857D02*
X106910678Y-54046571D01*
X106910678Y-54046571D02*
X106624964Y-53475142D01*
X106624964Y-53475142D02*
X106339250Y-53189428D01*
X106339250Y-53189428D02*
X105767821Y-52903714D01*
X105767821Y-52903714D02*
X104910678Y-52903714D01*
X104910678Y-52903714D02*
X104339250Y-53189428D01*
X104339250Y-53189428D02*
X104053536Y-53475142D01*
X104053536Y-53475142D02*
X103767821Y-54046571D01*
X103767821Y-54046571D02*
X103767821Y-55760857D01*
X103767821Y-55760857D02*
X104053536Y-56332285D01*
X104053536Y-56332285D02*
X104339250Y-56618000D01*
X104339250Y-56618000D02*
X104910678Y-56903714D01*
X104910678Y-56903714D02*
X105767821Y-56903714D01*
D10*
X113158346Y-129107971D02*
X113229774Y-129179400D01*
X113229774Y-129179400D02*
X113444060Y-129250828D01*
X113444060Y-129250828D02*
X113586917Y-129250828D01*
X113586917Y-129250828D02*
X113801203Y-129179400D01*
X113801203Y-129179400D02*
X113944060Y-129036542D01*
X113944060Y-129036542D02*
X114015489Y-128893685D01*
X114015489Y-128893685D02*
X114086917Y-128607971D01*
X114086917Y-128607971D02*
X114086917Y-128393685D01*
X114086917Y-128393685D02*
X114015489Y-128107971D01*
X114015489Y-128107971D02*
X113944060Y-127965114D01*
X113944060Y-127965114D02*
X113801203Y-127822257D01*
X113801203Y-127822257D02*
X113586917Y-127750828D01*
X113586917Y-127750828D02*
X113444060Y-127750828D01*
X113444060Y-127750828D02*
X113229774Y-127822257D01*
X113229774Y-127822257D02*
X113158346Y-127893685D01*
X157659774Y-141710828D02*
X157159774Y-143210828D01*
X157159774Y-143210828D02*
X156659774Y-141710828D01*
X155945489Y-143210828D02*
X156088346Y-143139400D01*
X156088346Y-143139400D02*
X156159775Y-143067971D01*
X156159775Y-143067971D02*
X156231203Y-142925114D01*
X156231203Y-142925114D02*
X156231203Y-142496542D01*
X156231203Y-142496542D02*
X156159775Y-142353685D01*
X156159775Y-142353685D02*
X156088346Y-142282257D01*
X156088346Y-142282257D02*
X155945489Y-142210828D01*
X155945489Y-142210828D02*
X155731203Y-142210828D01*
X155731203Y-142210828D02*
X155588346Y-142282257D01*
X155588346Y-142282257D02*
X155516918Y-142353685D01*
X155516918Y-142353685D02*
X155445489Y-142496542D01*
X155445489Y-142496542D02*
X155445489Y-142925114D01*
X155445489Y-142925114D02*
X155516918Y-143067971D01*
X155516918Y-143067971D02*
X155588346Y-143139400D01*
X155588346Y-143139400D02*
X155731203Y-143210828D01*
X155731203Y-143210828D02*
X155945489Y-143210828D01*
X154588346Y-143210828D02*
X154731203Y-143139400D01*
X154731203Y-143139400D02*
X154802632Y-142996542D01*
X154802632Y-142996542D02*
X154802632Y-141710828D01*
X152874061Y-142639400D02*
X151731204Y-142639400D01*
X113838346Y-146980828D02*
X112909774Y-146980828D01*
X112909774Y-146980828D02*
X113409774Y-147552257D01*
X113409774Y-147552257D02*
X113195489Y-147552257D01*
X113195489Y-147552257D02*
X113052632Y-147623685D01*
X113052632Y-147623685D02*
X112981203Y-147695114D01*
X112981203Y-147695114D02*
X112909774Y-147837971D01*
X112909774Y-147837971D02*
X112909774Y-148195114D01*
X112909774Y-148195114D02*
X112981203Y-148337971D01*
X112981203Y-148337971D02*
X113052632Y-148409400D01*
X113052632Y-148409400D02*
X113195489Y-148480828D01*
X113195489Y-148480828D02*
X113624060Y-148480828D01*
X113624060Y-148480828D02*
X113766917Y-148409400D01*
X113766917Y-148409400D02*
X113838346Y-148337971D01*
X147189774Y-148510828D02*
X148046917Y-148510828D01*
X147618346Y-148510828D02*
X147618346Y-147010828D01*
X147618346Y-147010828D02*
X147761203Y-147225114D01*
X147761203Y-147225114D02*
X147904060Y-147367971D01*
X147904060Y-147367971D02*
X148046917Y-147439400D01*
X139745489Y-134220828D02*
X139745489Y-132720828D01*
X139745489Y-132720828D02*
X139245489Y-133792257D01*
X139245489Y-133792257D02*
X138745489Y-132720828D01*
X138745489Y-132720828D02*
X138745489Y-134220828D01*
X137816917Y-134220828D02*
X137959774Y-134149400D01*
X137959774Y-134149400D02*
X138031203Y-134077971D01*
X138031203Y-134077971D02*
X138102631Y-133935114D01*
X138102631Y-133935114D02*
X138102631Y-133506542D01*
X138102631Y-133506542D02*
X138031203Y-133363685D01*
X138031203Y-133363685D02*
X137959774Y-133292257D01*
X137959774Y-133292257D02*
X137816917Y-133220828D01*
X137816917Y-133220828D02*
X137602631Y-133220828D01*
X137602631Y-133220828D02*
X137459774Y-133292257D01*
X137459774Y-133292257D02*
X137388346Y-133363685D01*
X137388346Y-133363685D02*
X137316917Y-133506542D01*
X137316917Y-133506542D02*
X137316917Y-133935114D01*
X137316917Y-133935114D02*
X137388346Y-134077971D01*
X137388346Y-134077971D02*
X137459774Y-134149400D01*
X137459774Y-134149400D02*
X137602631Y-134220828D01*
X137602631Y-134220828D02*
X137816917Y-134220828D01*
X136031203Y-134220828D02*
X136031203Y-132720828D01*
X136031203Y-134149400D02*
X136174060Y-134220828D01*
X136174060Y-134220828D02*
X136459774Y-134220828D01*
X136459774Y-134220828D02*
X136602631Y-134149400D01*
X136602631Y-134149400D02*
X136674060Y-134077971D01*
X136674060Y-134077971D02*
X136745488Y-133935114D01*
X136745488Y-133935114D02*
X136745488Y-133506542D01*
X136745488Y-133506542D02*
X136674060Y-133363685D01*
X136674060Y-133363685D02*
X136602631Y-133292257D01*
X136602631Y-133292257D02*
X136459774Y-133220828D01*
X136459774Y-133220828D02*
X136174060Y-133220828D01*
X136174060Y-133220828D02*
X136031203Y-133292257D01*
X134745488Y-134149400D02*
X134888345Y-134220828D01*
X134888345Y-134220828D02*
X135174060Y-134220828D01*
X135174060Y-134220828D02*
X135316917Y-134149400D01*
X135316917Y-134149400D02*
X135388345Y-134006542D01*
X135388345Y-134006542D02*
X135388345Y-133435114D01*
X135388345Y-133435114D02*
X135316917Y-133292257D01*
X135316917Y-133292257D02*
X135174060Y-133220828D01*
X135174060Y-133220828D02*
X134888345Y-133220828D01*
X134888345Y-133220828D02*
X134745488Y-133292257D01*
X134745488Y-133292257D02*
X134674060Y-133435114D01*
X134674060Y-133435114D02*
X134674060Y-133577971D01*
X134674060Y-133577971D02*
X135388345Y-133720828D01*
X121415489Y-142805114D02*
X120915489Y-142805114D01*
X120701203Y-143590828D02*
X121415489Y-143590828D01*
X121415489Y-143590828D02*
X121415489Y-142090828D01*
X121415489Y-142090828D02*
X120701203Y-142090828D01*
X120201203Y-143590828D02*
X119415489Y-142590828D01*
X120201203Y-142590828D02*
X119415489Y-143590828D01*
X118844060Y-143590828D02*
X118844060Y-142590828D01*
X118844060Y-142090828D02*
X118915488Y-142162257D01*
X118915488Y-142162257D02*
X118844060Y-142233685D01*
X118844060Y-142233685D02*
X118772631Y-142162257D01*
X118772631Y-142162257D02*
X118844060Y-142090828D01*
X118844060Y-142090828D02*
X118844060Y-142233685D01*
X118344059Y-142590828D02*
X117772631Y-142590828D01*
X118129774Y-142090828D02*
X118129774Y-143376542D01*
X118129774Y-143376542D02*
X118058345Y-143519400D01*
X118058345Y-143519400D02*
X117915488Y-143590828D01*
X117915488Y-143590828D02*
X117772631Y-143590828D01*
X130886917Y-147113685D02*
X130815489Y-147042257D01*
X130815489Y-147042257D02*
X130672632Y-146970828D01*
X130672632Y-146970828D02*
X130315489Y-146970828D01*
X130315489Y-146970828D02*
X130172632Y-147042257D01*
X130172632Y-147042257D02*
X130101203Y-147113685D01*
X130101203Y-147113685D02*
X130029774Y-147256542D01*
X130029774Y-147256542D02*
X130029774Y-147399400D01*
X130029774Y-147399400D02*
X130101203Y-147613685D01*
X130101203Y-147613685D02*
X130958346Y-148470828D01*
X130958346Y-148470828D02*
X130029774Y-148470828D01*
X130355489Y-128505114D02*
X130141203Y-128576542D01*
X130141203Y-128576542D02*
X130069774Y-128647971D01*
X130069774Y-128647971D02*
X129998346Y-128790828D01*
X129998346Y-128790828D02*
X129998346Y-129005114D01*
X129998346Y-129005114D02*
X130069774Y-129147971D01*
X130069774Y-129147971D02*
X130141203Y-129219400D01*
X130141203Y-129219400D02*
X130284060Y-129290828D01*
X130284060Y-129290828D02*
X130855489Y-129290828D01*
X130855489Y-129290828D02*
X130855489Y-127790828D01*
X130855489Y-127790828D02*
X130355489Y-127790828D01*
X130355489Y-127790828D02*
X130212632Y-127862257D01*
X130212632Y-127862257D02*
X130141203Y-127933685D01*
X130141203Y-127933685D02*
X130069774Y-128076542D01*
X130069774Y-128076542D02*
X130069774Y-128219400D01*
X130069774Y-128219400D02*
X130141203Y-128362257D01*
X130141203Y-128362257D02*
X130212632Y-128433685D01*
X130212632Y-128433685D02*
X130355489Y-128505114D01*
X130355489Y-128505114D02*
X130855489Y-128505114D01*
X122775489Y-133455114D02*
X122275489Y-133455114D01*
X122061203Y-134240828D02*
X122775489Y-134240828D01*
X122775489Y-134240828D02*
X122775489Y-132740828D01*
X122775489Y-132740828D02*
X122061203Y-132740828D01*
X121418346Y-133240828D02*
X121418346Y-134240828D01*
X121418346Y-133383685D02*
X121346917Y-133312257D01*
X121346917Y-133312257D02*
X121204060Y-133240828D01*
X121204060Y-133240828D02*
X120989774Y-133240828D01*
X120989774Y-133240828D02*
X120846917Y-133312257D01*
X120846917Y-133312257D02*
X120775489Y-133455114D01*
X120775489Y-133455114D02*
X120775489Y-134240828D01*
X120275488Y-133240828D02*
X119704060Y-133240828D01*
X120061203Y-132740828D02*
X120061203Y-134026542D01*
X120061203Y-134026542D02*
X119989774Y-134169400D01*
X119989774Y-134169400D02*
X119846917Y-134240828D01*
X119846917Y-134240828D02*
X119704060Y-134240828D01*
X118632631Y-134169400D02*
X118775488Y-134240828D01*
X118775488Y-134240828D02*
X119061203Y-134240828D01*
X119061203Y-134240828D02*
X119204060Y-134169400D01*
X119204060Y-134169400D02*
X119275488Y-134026542D01*
X119275488Y-134026542D02*
X119275488Y-133455114D01*
X119275488Y-133455114D02*
X119204060Y-133312257D01*
X119204060Y-133312257D02*
X119061203Y-133240828D01*
X119061203Y-133240828D02*
X118775488Y-133240828D01*
X118775488Y-133240828D02*
X118632631Y-133312257D01*
X118632631Y-133312257D02*
X118561203Y-133455114D01*
X118561203Y-133455114D02*
X118561203Y-133597971D01*
X118561203Y-133597971D02*
X119275488Y-133740828D01*
X117918346Y-134240828D02*
X117918346Y-133240828D01*
X117918346Y-133526542D02*
X117846917Y-133383685D01*
X117846917Y-133383685D02*
X117775489Y-133312257D01*
X117775489Y-133312257D02*
X117632631Y-133240828D01*
X117632631Y-133240828D02*
X117489774Y-133240828D01*
D12*
X143742380Y-89713187D02*
X143742380Y-87213187D01*
X143742380Y-87213187D02*
X142909047Y-88998901D01*
X142909047Y-88998901D02*
X142075714Y-87213187D01*
X142075714Y-87213187D02*
X142075714Y-89713187D01*
X139813809Y-88046520D02*
X139813809Y-89713187D01*
X140885237Y-88046520D02*
X140885237Y-89356044D01*
X140885237Y-89356044D02*
X140766190Y-89594140D01*
X140766190Y-89594140D02*
X140528095Y-89713187D01*
X140528095Y-89713187D02*
X140170952Y-89713187D01*
X140170952Y-89713187D02*
X139932856Y-89594140D01*
X139932856Y-89594140D02*
X139813809Y-89475092D01*
X138266190Y-89713187D02*
X138504285Y-89594140D01*
X138504285Y-89594140D02*
X138623332Y-89356044D01*
X138623332Y-89356044D02*
X138623332Y-87213187D01*
X137670951Y-88046520D02*
X136718570Y-88046520D01*
X137313808Y-87213187D02*
X137313808Y-89356044D01*
X137313808Y-89356044D02*
X137194761Y-89594140D01*
X137194761Y-89594140D02*
X136956666Y-89713187D01*
X136956666Y-89713187D02*
X136718570Y-89713187D01*
X135885237Y-89713187D02*
X135885237Y-88046520D01*
X135885237Y-87213187D02*
X136004285Y-87332235D01*
X136004285Y-87332235D02*
X135885237Y-87451282D01*
X135885237Y-87451282D02*
X135766190Y-87332235D01*
X135766190Y-87332235D02*
X135885237Y-87213187D01*
X135885237Y-87213187D02*
X135885237Y-87451282D01*
X134694761Y-88760806D02*
X132790000Y-88760806D01*
X130766190Y-88403663D02*
X131599523Y-88403663D01*
X131599523Y-89713187D02*
X131599523Y-87213187D01*
X131599523Y-87213187D02*
X130409047Y-87213187D01*
X128385238Y-88046520D02*
X128385238Y-89713187D01*
X129456666Y-88046520D02*
X129456666Y-89356044D01*
X129456666Y-89356044D02*
X129337619Y-89594140D01*
X129337619Y-89594140D02*
X129099524Y-89713187D01*
X129099524Y-89713187D02*
X128742381Y-89713187D01*
X128742381Y-89713187D02*
X128504285Y-89594140D01*
X128504285Y-89594140D02*
X128385238Y-89475092D01*
X127194761Y-88046520D02*
X127194761Y-89713187D01*
X127194761Y-88284616D02*
X127075714Y-88165568D01*
X127075714Y-88165568D02*
X126837619Y-88046520D01*
X126837619Y-88046520D02*
X126480476Y-88046520D01*
X126480476Y-88046520D02*
X126242380Y-88165568D01*
X126242380Y-88165568D02*
X126123333Y-88403663D01*
X126123333Y-88403663D02*
X126123333Y-89713187D01*
X123861428Y-89594140D02*
X124099523Y-89713187D01*
X124099523Y-89713187D02*
X124575714Y-89713187D01*
X124575714Y-89713187D02*
X124813809Y-89594140D01*
X124813809Y-89594140D02*
X124932856Y-89475092D01*
X124932856Y-89475092D02*
X125051904Y-89236997D01*
X125051904Y-89236997D02*
X125051904Y-88522711D01*
X125051904Y-88522711D02*
X124932856Y-88284616D01*
X124932856Y-88284616D02*
X124813809Y-88165568D01*
X124813809Y-88165568D02*
X124575714Y-88046520D01*
X124575714Y-88046520D02*
X124099523Y-88046520D01*
X124099523Y-88046520D02*
X123861428Y-88165568D01*
X123147142Y-88046520D02*
X122194761Y-88046520D01*
X122789999Y-87213187D02*
X122789999Y-89356044D01*
X122789999Y-89356044D02*
X122670952Y-89594140D01*
X122670952Y-89594140D02*
X122432857Y-89713187D01*
X122432857Y-89713187D02*
X122194761Y-89713187D01*
X121361428Y-89713187D02*
X121361428Y-88046520D01*
X121361428Y-87213187D02*
X121480476Y-87332235D01*
X121480476Y-87332235D02*
X121361428Y-87451282D01*
X121361428Y-87451282D02*
X121242381Y-87332235D01*
X121242381Y-87332235D02*
X121361428Y-87213187D01*
X121361428Y-87213187D02*
X121361428Y-87451282D01*
X119813810Y-89713187D02*
X120051905Y-89594140D01*
X120051905Y-89594140D02*
X120170952Y-89475092D01*
X120170952Y-89475092D02*
X120290000Y-89236997D01*
X120290000Y-89236997D02*
X120290000Y-88522711D01*
X120290000Y-88522711D02*
X120170952Y-88284616D01*
X120170952Y-88284616D02*
X120051905Y-88165568D01*
X120051905Y-88165568D02*
X119813810Y-88046520D01*
X119813810Y-88046520D02*
X119456667Y-88046520D01*
X119456667Y-88046520D02*
X119218571Y-88165568D01*
X119218571Y-88165568D02*
X119099524Y-88284616D01*
X119099524Y-88284616D02*
X118980476Y-88522711D01*
X118980476Y-88522711D02*
X118980476Y-89236997D01*
X118980476Y-89236997D02*
X119099524Y-89475092D01*
X119099524Y-89475092D02*
X119218571Y-89594140D01*
X119218571Y-89594140D02*
X119456667Y-89713187D01*
X119456667Y-89713187D02*
X119813810Y-89713187D01*
X117909047Y-88046520D02*
X117909047Y-89713187D01*
X117909047Y-88284616D02*
X117790000Y-88165568D01*
X117790000Y-88165568D02*
X117551905Y-88046520D01*
X117551905Y-88046520D02*
X117194762Y-88046520D01*
X117194762Y-88046520D02*
X116956666Y-88165568D01*
X116956666Y-88165568D02*
X116837619Y-88403663D01*
X116837619Y-88403663D02*
X116837619Y-89713187D01*
X141659047Y-93499952D02*
X141778095Y-93619000D01*
X141778095Y-93619000D02*
X142135237Y-93738047D01*
X142135237Y-93738047D02*
X142373333Y-93738047D01*
X142373333Y-93738047D02*
X142730476Y-93619000D01*
X142730476Y-93619000D02*
X142968571Y-93380904D01*
X142968571Y-93380904D02*
X143087618Y-93142809D01*
X143087618Y-93142809D02*
X143206666Y-92666619D01*
X143206666Y-92666619D02*
X143206666Y-92309476D01*
X143206666Y-92309476D02*
X143087618Y-91833285D01*
X143087618Y-91833285D02*
X142968571Y-91595190D01*
X142968571Y-91595190D02*
X142730476Y-91357095D01*
X142730476Y-91357095D02*
X142373333Y-91238047D01*
X142373333Y-91238047D02*
X142135237Y-91238047D01*
X142135237Y-91238047D02*
X141778095Y-91357095D01*
X141778095Y-91357095D02*
X141659047Y-91476142D01*
X140230476Y-93738047D02*
X140468571Y-93619000D01*
X140468571Y-93619000D02*
X140587618Y-93499952D01*
X140587618Y-93499952D02*
X140706666Y-93261857D01*
X140706666Y-93261857D02*
X140706666Y-92547571D01*
X140706666Y-92547571D02*
X140587618Y-92309476D01*
X140587618Y-92309476D02*
X140468571Y-92190428D01*
X140468571Y-92190428D02*
X140230476Y-92071380D01*
X140230476Y-92071380D02*
X139873333Y-92071380D01*
X139873333Y-92071380D02*
X139635237Y-92190428D01*
X139635237Y-92190428D02*
X139516190Y-92309476D01*
X139516190Y-92309476D02*
X139397142Y-92547571D01*
X139397142Y-92547571D02*
X139397142Y-93261857D01*
X139397142Y-93261857D02*
X139516190Y-93499952D01*
X139516190Y-93499952D02*
X139635237Y-93619000D01*
X139635237Y-93619000D02*
X139873333Y-93738047D01*
X139873333Y-93738047D02*
X140230476Y-93738047D01*
X138325713Y-93738047D02*
X138325713Y-92071380D01*
X138325713Y-92309476D02*
X138206666Y-92190428D01*
X138206666Y-92190428D02*
X137968571Y-92071380D01*
X137968571Y-92071380D02*
X137611428Y-92071380D01*
X137611428Y-92071380D02*
X137373332Y-92190428D01*
X137373332Y-92190428D02*
X137254285Y-92428523D01*
X137254285Y-92428523D02*
X137254285Y-93738047D01*
X137254285Y-92428523D02*
X137135237Y-92190428D01*
X137135237Y-92190428D02*
X136897142Y-92071380D01*
X136897142Y-92071380D02*
X136539999Y-92071380D01*
X136539999Y-92071380D02*
X136301904Y-92190428D01*
X136301904Y-92190428D02*
X136182856Y-92428523D01*
X136182856Y-92428523D02*
X136182856Y-93738047D01*
X134992380Y-93738047D02*
X134992380Y-92071380D01*
X134992380Y-92309476D02*
X134873333Y-92190428D01*
X134873333Y-92190428D02*
X134635238Y-92071380D01*
X134635238Y-92071380D02*
X134278095Y-92071380D01*
X134278095Y-92071380D02*
X134039999Y-92190428D01*
X134039999Y-92190428D02*
X133920952Y-92428523D01*
X133920952Y-92428523D02*
X133920952Y-93738047D01*
X133920952Y-92428523D02*
X133801904Y-92190428D01*
X133801904Y-92190428D02*
X133563809Y-92071380D01*
X133563809Y-92071380D02*
X133206666Y-92071380D01*
X133206666Y-92071380D02*
X132968571Y-92190428D01*
X132968571Y-92190428D02*
X132849523Y-92428523D01*
X132849523Y-92428523D02*
X132849523Y-93738047D01*
X130587619Y-92071380D02*
X130587619Y-93738047D01*
X131659047Y-92071380D02*
X131659047Y-93380904D01*
X131659047Y-93380904D02*
X131540000Y-93619000D01*
X131540000Y-93619000D02*
X131301905Y-93738047D01*
X131301905Y-93738047D02*
X130944762Y-93738047D01*
X130944762Y-93738047D02*
X130706666Y-93619000D01*
X130706666Y-93619000D02*
X130587619Y-93499952D01*
X129397142Y-92071380D02*
X129397142Y-93738047D01*
X129397142Y-92309476D02*
X129278095Y-92190428D01*
X129278095Y-92190428D02*
X129040000Y-92071380D01*
X129040000Y-92071380D02*
X128682857Y-92071380D01*
X128682857Y-92071380D02*
X128444761Y-92190428D01*
X128444761Y-92190428D02*
X128325714Y-92428523D01*
X128325714Y-92428523D02*
X128325714Y-93738047D01*
X127135237Y-93738047D02*
X127135237Y-92071380D01*
X127135237Y-91238047D02*
X127254285Y-91357095D01*
X127254285Y-91357095D02*
X127135237Y-91476142D01*
X127135237Y-91476142D02*
X127016190Y-91357095D01*
X127016190Y-91357095D02*
X127135237Y-91238047D01*
X127135237Y-91238047D02*
X127135237Y-91476142D01*
X124873333Y-93619000D02*
X125111428Y-93738047D01*
X125111428Y-93738047D02*
X125587619Y-93738047D01*
X125587619Y-93738047D02*
X125825714Y-93619000D01*
X125825714Y-93619000D02*
X125944761Y-93499952D01*
X125944761Y-93499952D02*
X126063809Y-93261857D01*
X126063809Y-93261857D02*
X126063809Y-92547571D01*
X126063809Y-92547571D02*
X125944761Y-92309476D01*
X125944761Y-92309476D02*
X125825714Y-92190428D01*
X125825714Y-92190428D02*
X125587619Y-92071380D01*
X125587619Y-92071380D02*
X125111428Y-92071380D01*
X125111428Y-92071380D02*
X124873333Y-92190428D01*
X122730476Y-93738047D02*
X122730476Y-92428523D01*
X122730476Y-92428523D02*
X122849523Y-92190428D01*
X122849523Y-92190428D02*
X123087619Y-92071380D01*
X123087619Y-92071380D02*
X123563809Y-92071380D01*
X123563809Y-92071380D02*
X123801904Y-92190428D01*
X122730476Y-93619000D02*
X122968571Y-93738047D01*
X122968571Y-93738047D02*
X123563809Y-93738047D01*
X123563809Y-93738047D02*
X123801904Y-93619000D01*
X123801904Y-93619000D02*
X123920952Y-93380904D01*
X123920952Y-93380904D02*
X123920952Y-93142809D01*
X123920952Y-93142809D02*
X123801904Y-92904714D01*
X123801904Y-92904714D02*
X123563809Y-92785666D01*
X123563809Y-92785666D02*
X122968571Y-92785666D01*
X122968571Y-92785666D02*
X122730476Y-92666619D01*
X121897142Y-92071380D02*
X120944761Y-92071380D01*
X121539999Y-91238047D02*
X121539999Y-93380904D01*
X121539999Y-93380904D02*
X121420952Y-93619000D01*
X121420952Y-93619000D02*
X121182857Y-93738047D01*
X121182857Y-93738047D02*
X120944761Y-93738047D01*
X119754286Y-93738047D02*
X119992381Y-93619000D01*
X119992381Y-93619000D02*
X120111428Y-93499952D01*
X120111428Y-93499952D02*
X120230476Y-93261857D01*
X120230476Y-93261857D02*
X120230476Y-92547571D01*
X120230476Y-92547571D02*
X120111428Y-92309476D01*
X120111428Y-92309476D02*
X119992381Y-92190428D01*
X119992381Y-92190428D02*
X119754286Y-92071380D01*
X119754286Y-92071380D02*
X119397143Y-92071380D01*
X119397143Y-92071380D02*
X119159047Y-92190428D01*
X119159047Y-92190428D02*
X119040000Y-92309476D01*
X119040000Y-92309476D02*
X118920952Y-92547571D01*
X118920952Y-92547571D02*
X118920952Y-93261857D01*
X118920952Y-93261857D02*
X119040000Y-93499952D01*
X119040000Y-93499952D02*
X119159047Y-93619000D01*
X119159047Y-93619000D02*
X119397143Y-93738047D01*
X119397143Y-93738047D02*
X119754286Y-93738047D01*
X117849523Y-93738047D02*
X117849523Y-92071380D01*
X117849523Y-92547571D02*
X117730476Y-92309476D01*
X117730476Y-92309476D02*
X117611428Y-92190428D01*
X117611428Y-92190428D02*
X117373333Y-92071380D01*
X117373333Y-92071380D02*
X117135238Y-92071380D01*
D10*
X139785489Y-143310828D02*
X139785489Y-141810828D01*
X139785489Y-141810828D02*
X139285489Y-142882257D01*
X139285489Y-142882257D02*
X138785489Y-141810828D01*
X138785489Y-141810828D02*
X138785489Y-143310828D01*
X137499774Y-143239400D02*
X137642631Y-143310828D01*
X137642631Y-143310828D02*
X137928346Y-143310828D01*
X137928346Y-143310828D02*
X138071203Y-143239400D01*
X138071203Y-143239400D02*
X138142631Y-143096542D01*
X138142631Y-143096542D02*
X138142631Y-142525114D01*
X138142631Y-142525114D02*
X138071203Y-142382257D01*
X138071203Y-142382257D02*
X137928346Y-142310828D01*
X137928346Y-142310828D02*
X137642631Y-142310828D01*
X137642631Y-142310828D02*
X137499774Y-142382257D01*
X137499774Y-142382257D02*
X137428346Y-142525114D01*
X137428346Y-142525114D02*
X137428346Y-142667971D01*
X137428346Y-142667971D02*
X138142631Y-142810828D01*
X136785489Y-142310828D02*
X136785489Y-143310828D01*
X136785489Y-142453685D02*
X136714060Y-142382257D01*
X136714060Y-142382257D02*
X136571203Y-142310828D01*
X136571203Y-142310828D02*
X136356917Y-142310828D01*
X136356917Y-142310828D02*
X136214060Y-142382257D01*
X136214060Y-142382257D02*
X136142632Y-142525114D01*
X136142632Y-142525114D02*
X136142632Y-143310828D01*
X134785489Y-142310828D02*
X134785489Y-143310828D01*
X135428346Y-142310828D02*
X135428346Y-143096542D01*
X135428346Y-143096542D02*
X135356917Y-143239400D01*
X135356917Y-143239400D02*
X135214060Y-143310828D01*
X135214060Y-143310828D02*
X134999774Y-143310828D01*
X134999774Y-143310828D02*
X134856917Y-143239400D01*
X134856917Y-143239400D02*
X134785489Y-143167971D01*
X147996917Y-128862257D02*
X147282632Y-128862257D01*
X148139774Y-129290828D02*
X147639774Y-127790828D01*
X147639774Y-127790828D02*
X147139774Y-129290828D01*
D13*
%TO.C,G\u002A\u002A\u002A*%
G36*
X157224369Y-69483529D02*
G01*
X157224369Y-69803697D01*
X154987196Y-69803697D01*
X154282475Y-69805255D01*
X153678917Y-69812227D01*
X153222026Y-69827352D01*
X152876819Y-69853356D01*
X152608314Y-69892964D01*
X152381526Y-69948904D01*
X152161475Y-70023902D01*
X151931124Y-70122536D01*
X151516112Y-70381917D01*
X151240872Y-70678100D01*
X151141176Y-70977647D01*
X151204150Y-71228352D01*
X151445777Y-71535329D01*
X151833186Y-71806086D01*
X152328608Y-72015606D01*
X152894272Y-72138869D01*
X153141494Y-72172725D01*
X153341053Y-72230206D01*
X153421075Y-72334660D01*
X153435714Y-72524676D01*
X153435712Y-72530329D01*
X153422658Y-72709135D01*
X153349980Y-72811940D01*
X153166806Y-72871613D01*
X152822261Y-72921023D01*
X152576318Y-72956189D01*
X152131517Y-73063898D01*
X151778915Y-73239343D01*
X151434664Y-73518637D01*
X151299080Y-73666630D01*
X151152911Y-73996959D01*
X151213445Y-74322879D01*
X151476322Y-74632293D01*
X151937182Y-74913105D01*
X152082444Y-74974860D01*
X152463547Y-75092948D01*
X152785486Y-75139832D01*
X152951943Y-75143423D01*
X153275160Y-75196233D01*
X153441799Y-75329806D01*
X153489075Y-75566723D01*
X153483157Y-75667717D01*
X153396117Y-75863824D01*
X153175966Y-75964929D01*
X152785486Y-75993613D01*
X152667508Y-76002215D01*
X152305714Y-76082682D01*
X151937182Y-76220340D01*
X151631298Y-76387255D01*
X151288388Y-76686332D01*
X151152807Y-77006875D01*
X151226595Y-77341869D01*
X151511788Y-77684299D01*
X151777135Y-77879179D01*
X152352201Y-78137651D01*
X152955462Y-78235829D01*
X153211895Y-78266652D01*
X153429861Y-78410752D01*
X153471732Y-78673750D01*
X153461859Y-78729175D01*
X153391786Y-78863021D01*
X153221432Y-78941020D01*
X152894272Y-78994576D01*
X152444508Y-79083501D01*
X151930955Y-79276742D01*
X151517369Y-79536551D01*
X151241519Y-79837909D01*
X151141176Y-80155798D01*
X151163381Y-80293246D01*
X151349078Y-80595389D01*
X151693699Y-80878634D01*
X152161475Y-81109543D01*
X152361600Y-81178499D01*
X152586313Y-81236073D01*
X152849536Y-81277066D01*
X153186254Y-81304203D01*
X153631448Y-81320212D01*
X154220101Y-81327818D01*
X154987196Y-81329748D01*
X157224369Y-81329748D01*
X157224369Y-81649916D01*
X157224369Y-81970084D01*
X154945757Y-81970084D01*
X154696953Y-81969894D01*
X153933998Y-81964981D01*
X153338166Y-81950279D01*
X152873315Y-81921616D01*
X152503300Y-81874819D01*
X152191978Y-81805715D01*
X151903207Y-81710131D01*
X151600842Y-81583893D01*
X151472194Y-81521015D01*
X151015002Y-81185159D01*
X150690224Y-80756503D01*
X150523723Y-80278707D01*
X150541363Y-79795427D01*
X150610350Y-79630276D01*
X150825718Y-79318969D01*
X151112796Y-79015570D01*
X151405608Y-78796350D01*
X151420210Y-78788159D01*
X151514074Y-78714648D01*
X151508865Y-78622258D01*
X151384429Y-78470015D01*
X151120612Y-78216945D01*
X150771704Y-77829718D01*
X150535788Y-77362407D01*
X150512974Y-76902980D01*
X150703247Y-76449336D01*
X151106595Y-75999379D01*
X151598118Y-75566723D01*
X151106595Y-75134067D01*
X150768431Y-74776007D01*
X150534623Y-74322131D01*
X150514056Y-73863007D01*
X150706735Y-73397358D01*
X151112661Y-72923904D01*
X151339735Y-72703350D01*
X151509119Y-72518993D01*
X151557741Y-72435772D01*
X151542284Y-72424421D01*
X151397810Y-72322693D01*
X151166247Y-72161983D01*
X150872628Y-71907474D01*
X150599472Y-71470801D01*
X150518143Y-70991755D01*
X150632396Y-70506346D01*
X150945988Y-70050585D01*
X151158456Y-69845503D01*
X151446361Y-69624998D01*
X151769145Y-69456492D01*
X152156508Y-69333397D01*
X152638151Y-69249124D01*
X153243773Y-69197086D01*
X154003075Y-69170694D01*
X154945757Y-69163361D01*
X157224369Y-69163361D01*
X157224369Y-69483529D01*
G37*
G36*
X143475663Y-69164772D02*
G01*
X144096751Y-69171717D01*
X144571605Y-69187048D01*
X144936749Y-69213575D01*
X145228704Y-69254109D01*
X145483994Y-69311460D01*
X145739141Y-69388441D01*
X145751803Y-69392625D01*
X146363737Y-69670466D01*
X146828043Y-70032062D01*
X147136108Y-70450716D01*
X147279323Y-70899732D01*
X147249076Y-71352412D01*
X147036756Y-71782061D01*
X146633753Y-72161983D01*
X146563813Y-72210354D01*
X146349750Y-72359366D01*
X146242258Y-72435772D01*
X146280982Y-72506726D01*
X146441038Y-72683674D01*
X146687338Y-72923904D01*
X147027520Y-73301105D01*
X147263856Y-73768248D01*
X147286947Y-74228604D01*
X147096795Y-74683450D01*
X146693405Y-75134067D01*
X146201882Y-75566723D01*
X146693405Y-75999379D01*
X147037554Y-76365019D01*
X147267653Y-76817814D01*
X147284668Y-77276000D01*
X147088584Y-77741678D01*
X146679387Y-78216945D01*
X146644943Y-78249094D01*
X146396524Y-78489798D01*
X146285395Y-78633926D01*
X146291403Y-78722452D01*
X146394392Y-78796350D01*
X146575115Y-78919868D01*
X146872048Y-79200785D01*
X147121881Y-79518061D01*
X147258637Y-79795427D01*
X147294915Y-80252113D01*
X147143590Y-80731539D01*
X146795332Y-81162892D01*
X146257696Y-81537169D01*
X145538235Y-81845370D01*
X145493301Y-81856455D01*
X145230298Y-81887955D01*
X144802624Y-81915834D01*
X144246806Y-81938483D01*
X143599371Y-81954294D01*
X142896848Y-81961658D01*
X140575630Y-81970084D01*
X140575630Y-81649916D01*
X140575630Y-81329748D01*
X142812803Y-81329748D01*
X143517525Y-81328190D01*
X144121082Y-81321218D01*
X144577973Y-81306093D01*
X144923180Y-81280090D01*
X145191686Y-81240481D01*
X145418473Y-81184541D01*
X145638525Y-81109543D01*
X145868876Y-81010909D01*
X146283887Y-80751528D01*
X146559127Y-80455345D01*
X146658823Y-80155798D01*
X146595849Y-79905094D01*
X146354223Y-79598117D01*
X145966814Y-79327359D01*
X145471392Y-79117840D01*
X144905728Y-78994576D01*
X144788321Y-78979287D01*
X144513874Y-78921724D01*
X144379364Y-78830346D01*
X144328267Y-78673750D01*
X144338846Y-78478084D01*
X144503098Y-78297970D01*
X144844538Y-78235829D01*
X145022576Y-78224536D01*
X145483217Y-78119229D01*
X145925315Y-77927379D01*
X146300718Y-77678418D01*
X146561271Y-77401778D01*
X146658823Y-77126892D01*
X146633209Y-76944427D01*
X146437393Y-76606673D01*
X146072682Y-76323569D01*
X145567748Y-76114085D01*
X144951260Y-75997187D01*
X144663771Y-75964436D01*
X144458206Y-75910218D01*
X144365140Y-75810165D01*
X144329059Y-75631664D01*
X144322440Y-75522860D01*
X144386179Y-75297392D01*
X144595195Y-75177705D01*
X144979104Y-75141466D01*
X145101529Y-75133050D01*
X145483882Y-75051988D01*
X145862817Y-74913105D01*
X146096068Y-74790077D01*
X146467685Y-74494795D01*
X146639342Y-74176397D01*
X146606678Y-73846978D01*
X146365336Y-73518637D01*
X146209853Y-73380916D01*
X145872261Y-73151662D01*
X145489506Y-73010402D01*
X144977738Y-72921023D01*
X144966892Y-72919667D01*
X144626941Y-72870399D01*
X144447105Y-72810058D01*
X144376511Y-72705773D01*
X144364285Y-72524676D01*
X144370518Y-72377932D01*
X144426610Y-72253247D01*
X144586962Y-72186422D01*
X144905728Y-72138869D01*
X145355492Y-72049944D01*
X145869044Y-71856703D01*
X146282630Y-71596894D01*
X146558480Y-71295536D01*
X146658823Y-70977647D01*
X146636618Y-70840199D01*
X146450922Y-70538056D01*
X146106300Y-70254811D01*
X145638525Y-70023902D01*
X145438400Y-69954946D01*
X145213687Y-69897372D01*
X144950463Y-69856379D01*
X144613746Y-69829242D01*
X144168552Y-69813233D01*
X143579898Y-69805627D01*
X142812803Y-69803697D01*
X140575630Y-69803697D01*
X140575630Y-69483529D01*
X140575630Y-69163361D01*
X142814565Y-69163361D01*
X143475663Y-69164772D01*
G37*
G36*
X155522242Y-72432992D02*
G01*
X155795103Y-72620567D01*
X156044263Y-72970151D01*
X156259154Y-73459138D01*
X156429210Y-74064927D01*
X156543864Y-74764914D01*
X156592548Y-75536496D01*
X156610266Y-76070296D01*
X156681498Y-76909181D01*
X156798603Y-77638131D01*
X156954938Y-78242360D01*
X157143860Y-78707079D01*
X157358724Y-79017503D01*
X157592889Y-79158843D01*
X157839709Y-79116313D01*
X158092541Y-78875126D01*
X158186291Y-78708114D01*
X158333284Y-78325734D01*
X158476000Y-77838870D01*
X158598276Y-77311767D01*
X158683947Y-76808670D01*
X158716849Y-76393823D01*
X158723431Y-76226090D01*
X158762680Y-75982601D01*
X158825210Y-75886891D01*
X158862985Y-75920877D01*
X158908112Y-76112237D01*
X158928061Y-76419339D01*
X158922502Y-76781352D01*
X158891106Y-77137447D01*
X158833544Y-77426793D01*
X158784600Y-77592382D01*
X158678852Y-77957406D01*
X158565917Y-78353494D01*
X158483520Y-78598213D01*
X158312737Y-78969904D01*
X158135788Y-79233956D01*
X157978100Y-79383672D01*
X157732258Y-79496878D01*
X157481918Y-79423853D01*
X157183610Y-79161279D01*
X156946866Y-78824580D01*
X156706074Y-78246369D01*
X156524751Y-77510964D01*
X156409466Y-76646354D01*
X156366786Y-75680525D01*
X156339108Y-75055289D01*
X156250258Y-74370136D01*
X156110258Y-73760486D01*
X155929381Y-73260766D01*
X155717898Y-72905402D01*
X155486081Y-72728819D01*
X155308626Y-72722882D01*
X155065553Y-72882066D01*
X154843473Y-73220671D01*
X154651537Y-73718711D01*
X154498891Y-74356200D01*
X154394685Y-75113151D01*
X154389370Y-75166388D01*
X154337437Y-75531397D01*
X154273980Y-75789200D01*
X154211522Y-75886891D01*
X154162300Y-75807259D01*
X154146860Y-75525875D01*
X154175057Y-75047662D01*
X154217505Y-74654908D01*
X154364043Y-73861349D01*
X154574313Y-73218833D01*
X154840930Y-72746799D01*
X155156508Y-72464683D01*
X155236246Y-72430027D01*
X155522242Y-72432992D01*
G37*
G36*
X142643491Y-72464683D02*
G01*
X142788163Y-72564391D01*
X143083069Y-72932621D01*
X143325758Y-73482201D01*
X143508845Y-74193694D01*
X143624942Y-75047662D01*
X143652029Y-75477476D01*
X143641948Y-75783452D01*
X143588477Y-75886891D01*
X143580758Y-75885065D01*
X143517453Y-75763272D01*
X143454797Y-75488333D01*
X143405315Y-75113151D01*
X143338002Y-74572480D01*
X143198980Y-73896915D01*
X143017912Y-73354780D01*
X142803947Y-72966061D01*
X142566233Y-72750746D01*
X142313919Y-72728819D01*
X142115738Y-72868602D01*
X141902095Y-73198708D01*
X141715949Y-73674960D01*
X141568291Y-74261307D01*
X141470113Y-74921699D01*
X141432407Y-75620084D01*
X141400360Y-76466674D01*
X141296743Y-77361317D01*
X141127544Y-78125988D01*
X140898759Y-78734653D01*
X140616390Y-79161279D01*
X140519498Y-79257244D01*
X140282262Y-79442065D01*
X140104361Y-79515462D01*
X139891585Y-79439435D01*
X139640362Y-79192683D01*
X139410507Y-78816433D01*
X139234083Y-78353494D01*
X139163862Y-78106457D01*
X139051838Y-77717410D01*
X138966456Y-77426793D01*
X138929715Y-77269804D01*
X138887439Y-76934168D01*
X138871138Y-76567229D01*
X138880482Y-76229817D01*
X138915142Y-75982761D01*
X138974790Y-75886891D01*
X139010195Y-75915580D01*
X139062046Y-76098275D01*
X139083151Y-76393823D01*
X139098875Y-76661917D01*
X139169268Y-77143532D01*
X139281487Y-77669905D01*
X139419368Y-78176791D01*
X139566746Y-78599947D01*
X139707459Y-78875126D01*
X139838696Y-79026596D01*
X140090116Y-79167348D01*
X140330629Y-79115228D01*
X140554181Y-78883827D01*
X140754712Y-78486738D01*
X140926167Y-77937555D01*
X141062488Y-77249869D01*
X141157618Y-76437274D01*
X141205500Y-75513361D01*
X141210561Y-75354879D01*
X141278416Y-74584357D01*
X141408983Y-73896805D01*
X141592003Y-73313969D01*
X141817221Y-72857593D01*
X142074379Y-72549423D01*
X142353222Y-72411205D01*
X142643491Y-72464683D01*
G37*
G36*
X149420735Y-69793120D02*
G01*
X149434598Y-70130752D01*
X149417398Y-70421334D01*
X149365366Y-70583429D01*
X149280771Y-70621994D01*
X149164569Y-70540444D01*
X149113445Y-70337311D01*
X149107429Y-70240469D01*
X149028868Y-70092355D01*
X148870700Y-70132335D01*
X148647368Y-70359714D01*
X148454379Y-70561633D01*
X148314392Y-70621417D01*
X148275271Y-70525235D01*
X148367626Y-70281632D01*
X148382503Y-70253269D01*
X148454539Y-70034631D01*
X148385574Y-69886919D01*
X148282978Y-69721354D01*
X148283288Y-69710042D01*
X148579832Y-69710042D01*
X148646007Y-69771612D01*
X148846638Y-69803697D01*
X148864163Y-69803353D01*
X149061330Y-69730301D01*
X149117384Y-69580498D01*
X149002047Y-69427279D01*
X148995725Y-69423712D01*
X148832902Y-69436020D01*
X148660156Y-69554310D01*
X148579832Y-69710042D01*
X148283288Y-69710042D01*
X148289893Y-69468846D01*
X148466093Y-69273839D01*
X148738288Y-69182797D01*
X149064712Y-69181142D01*
X149305546Y-69291428D01*
X149314905Y-69302465D01*
X149379580Y-69489879D01*
X149391879Y-69580498D01*
X149420735Y-69793120D01*
G37*
G36*
X149207929Y-72114453D02*
G01*
X149307419Y-72378959D01*
X149398489Y-72632854D01*
X149433613Y-72748068D01*
X149415913Y-72768057D01*
X149273529Y-72791933D01*
X149199886Y-72779892D01*
X149113445Y-72685210D01*
X149113421Y-72683882D01*
X149018077Y-72609400D01*
X148793277Y-72578487D01*
X148789294Y-72578496D01*
X148565848Y-72610277D01*
X148473109Y-72685210D01*
X148455048Y-72734305D01*
X148313025Y-72791933D01*
X148213865Y-72775883D01*
X148163408Y-72686683D01*
X148201757Y-72483632D01*
X148329918Y-72127076D01*
X148338564Y-72104916D01*
X148341592Y-72098235D01*
X148686554Y-72098235D01*
X148698595Y-72171878D01*
X148793277Y-72258319D01*
X148842373Y-72240258D01*
X148900000Y-72098235D01*
X148887959Y-72024592D01*
X148793277Y-71938151D01*
X148744182Y-71956212D01*
X148686554Y-72098235D01*
X148341592Y-72098235D01*
X148527980Y-71687033D01*
X148695575Y-71479247D01*
X148855397Y-71481356D01*
X149021499Y-71693159D01*
X149200752Y-72098235D01*
X149207929Y-72114453D01*
G37*
G36*
X149413316Y-78701482D02*
G01*
X149420618Y-78869098D01*
X149415874Y-79182308D01*
X149387389Y-79375263D01*
X149373606Y-79405732D01*
X149268038Y-79475636D01*
X149161835Y-79390143D01*
X149113445Y-79188996D01*
X149106488Y-79107738D01*
X149017400Y-78993165D01*
X148846463Y-79050571D01*
X148620088Y-79275336D01*
X148479448Y-79421276D01*
X148328655Y-79487488D01*
X148276090Y-79393669D01*
X148358567Y-79156543D01*
X148370504Y-79133824D01*
X148439762Y-78904203D01*
X148359672Y-78690588D01*
X148273490Y-78510917D01*
X148274089Y-78501597D01*
X148633193Y-78501597D01*
X148685638Y-78575426D01*
X148873319Y-78642423D01*
X149039778Y-78633692D01*
X149113445Y-78501597D01*
X149069009Y-78386644D01*
X148873319Y-78360771D01*
X148723963Y-78405292D01*
X148633193Y-78501597D01*
X148274089Y-78501597D01*
X148287504Y-78292719D01*
X148488590Y-78170440D01*
X148872231Y-78148856D01*
X149380252Y-78181428D01*
X149400608Y-78501597D01*
X149413316Y-78701482D01*
G37*
G36*
X149326890Y-74321625D02*
G01*
X149318508Y-74647330D01*
X149292775Y-74932203D01*
X149255742Y-75068683D01*
X149237947Y-75084031D01*
X149022922Y-75136308D01*
X148729471Y-75086981D01*
X148439426Y-74959422D01*
X148234617Y-74777006D01*
X148160108Y-74529834D01*
X148165358Y-74465595D01*
X148484797Y-74465595D01*
X148601176Y-74691597D01*
X148674751Y-74750706D01*
X148856565Y-74819664D01*
X148985050Y-74750322D01*
X149081030Y-74544422D01*
X149113042Y-74280195D01*
X149072795Y-74037759D01*
X148952002Y-73897232D01*
X148796704Y-73882039D01*
X148611237Y-73995885D01*
X148497710Y-74212047D01*
X148484797Y-74465595D01*
X148165358Y-74465595D01*
X148187820Y-74190749D01*
X148319077Y-73882906D01*
X148356898Y-73833571D01*
X148569469Y-73687530D01*
X148906051Y-73645714D01*
X149326890Y-73645714D01*
X149326890Y-74280195D01*
X149326890Y-74321625D01*
G37*
G36*
X149287626Y-76686601D02*
G01*
X149394921Y-77027932D01*
X149395485Y-77030193D01*
X149396987Y-77228310D01*
X149290018Y-77260284D01*
X149113445Y-77114202D01*
X148997397Y-77011966D01*
X148738870Y-76970474D01*
X148454177Y-77131334D01*
X148298661Y-77244269D01*
X148199391Y-77221531D01*
X148207611Y-77017122D01*
X148323790Y-76632835D01*
X148343198Y-76580588D01*
X148686554Y-76580588D01*
X148698595Y-76654231D01*
X148793277Y-76740672D01*
X148842373Y-76722611D01*
X148900000Y-76580588D01*
X148887959Y-76506945D01*
X148793277Y-76420504D01*
X148744182Y-76438565D01*
X148686554Y-76580588D01*
X148343198Y-76580588D01*
X148364293Y-76523798D01*
X148550891Y-76125011D01*
X148726806Y-75931847D01*
X148896942Y-75938362D01*
X149003305Y-76069655D01*
X149146357Y-76343698D01*
X149243951Y-76580588D01*
X149287626Y-76686601D01*
G37*
G36*
X148870185Y-80265879D02*
G01*
X149120318Y-80384965D01*
X149350715Y-80622559D01*
X149488456Y-80907476D01*
X149490048Y-81152461D01*
X149320582Y-81473612D01*
X149272282Y-81532264D01*
X149045292Y-81709378D01*
X148765018Y-81735799D01*
X148509931Y-81662836D01*
X148327563Y-81521631D01*
X148293694Y-81460670D01*
X148270140Y-81296940D01*
X148379787Y-81261730D01*
X148577176Y-81380705D01*
X148695075Y-81461833D01*
X148904549Y-81473127D01*
X149055482Y-81308609D01*
X149113445Y-80993163D01*
X149113070Y-80969310D01*
X149031119Y-80700274D01*
X148835088Y-80593112D01*
X148567143Y-80672569D01*
X148400695Y-80766340D01*
X148287173Y-80773930D01*
X148259664Y-80639805D01*
X148349398Y-80468594D01*
X148567019Y-80323418D01*
X148827799Y-80262521D01*
X148870185Y-80265879D01*
G37*
%TD*%
%LPC*%
D14*
%TO.C,H6*%
X146500000Y-46500000D03*
%TD*%
%TO.C,H5*%
X114500000Y-46500000D03*
%TD*%
%TO.C,H4*%
X153500000Y-147500000D03*
%TD*%
%TO.C,H3*%
X107500000Y-147500000D03*
%TD*%
%TO.C,H2*%
X158500000Y-92500000D03*
%TD*%
%TO.C,H1*%
X102500000Y-92500000D03*
%TD*%
%LPD*%
M02*
