%TF.GenerationSoftware,KiCad,Pcbnew,8.0.8*%
%TF.CreationDate,2025-04-16T18:52:08+01:00*%
%TF.ProjectId,Front_panel_Tx,46726f6e-745f-4706-916e-656c5f54782e,rev?*%
%TF.SameCoordinates,Original*%
%TF.FileFunction,Legend,Top*%
%TF.FilePolarity,Positive*%
%FSLAX46Y46*%
G04 Gerber Fmt 4.6, Leading zero omitted, Abs format (unit mm)*
G04 Created by KiCad (PCBNEW 8.0.8) date 2025-04-16 18:52:08*
%MOMM*%
%LPD*%
G01*
G04 APERTURE LIST*
G04 Aperture macros list*
%AMRoundRect*
0 Rectangle with rounded corners*
0 $1 Rounding radius*
0 $2 $3 $4 $5 $6 $7 $8 $9 X,Y pos of 4 corners*
0 Add a 4 corners polygon primitive as box body*
4,1,4,$2,$3,$4,$5,$6,$7,$8,$9,$2,$3,0*
0 Add four circle primitives for the rounded corners*
1,1,$1+$1,$2,$3*
1,1,$1+$1,$4,$5*
1,1,$1+$1,$6,$7*
1,1,$1+$1,$8,$9*
0 Add four rect primitives between the rounded corners*
20,1,$1+$1,$2,$3,$4,$5,0*
20,1,$1+$1,$4,$5,$6,$7,0*
20,1,$1+$1,$6,$7,$8,$9,0*
20,1,$1+$1,$8,$9,$2,$3,0*%
G04 Aperture macros list end*
%ADD10C,0.150000*%
%ADD11C,0.120000*%
%ADD12C,2.100000*%
%ADD13RoundRect,0.225000X-0.225000X-0.250000X0.225000X-0.250000X0.225000X0.250000X-0.225000X0.250000X0*%
%ADD14RoundRect,0.087500X0.725000X0.087500X-0.725000X0.087500X-0.725000X-0.087500X0.725000X-0.087500X0*%
%ADD15RoundRect,0.225000X0.250000X-0.225000X0.250000X0.225000X-0.250000X0.225000X-0.250000X-0.225000X0*%
%ADD16RoundRect,0.225000X-0.250000X0.225000X-0.250000X-0.225000X0.250000X-0.225000X0.250000X0.225000X0*%
%ADD17RoundRect,0.200000X0.300000X0.200000X-0.300000X0.200000X-0.300000X-0.200000X0.300000X-0.200000X0*%
%ADD18RoundRect,0.250000X-0.350000X-0.650000X0.350000X-0.650000X0.350000X0.650000X-0.350000X0.650000X0*%
%ADD19RoundRect,0.150000X-0.150000X-0.625000X0.150000X-0.625000X0.150000X0.625000X-0.150000X0.625000X0*%
%ADD20RoundRect,0.218750X0.218750X0.256250X-0.218750X0.256250X-0.218750X-0.256250X0.218750X-0.256250X0*%
%ADD21RoundRect,0.200000X0.275000X-0.200000X0.275000X0.200000X-0.275000X0.200000X-0.275000X-0.200000X0*%
%ADD22RoundRect,0.200000X-0.275000X0.200000X-0.275000X-0.200000X0.275000X-0.200000X0.275000X0.200000X0*%
%ADD23R,1.500000X1.500000*%
G04 APERTURE END LIST*
D10*
X145738095Y-43754819D02*
X145738095Y-42754819D01*
X145738095Y-43231009D02*
X146309523Y-43231009D01*
X146309523Y-43754819D02*
X146309523Y-42754819D01*
X147214285Y-42754819D02*
X147023809Y-42754819D01*
X147023809Y-42754819D02*
X146928571Y-42802438D01*
X146928571Y-42802438D02*
X146880952Y-42850057D01*
X146880952Y-42850057D02*
X146785714Y-42992914D01*
X146785714Y-42992914D02*
X146738095Y-43183390D01*
X146738095Y-43183390D02*
X146738095Y-43564342D01*
X146738095Y-43564342D02*
X146785714Y-43659580D01*
X146785714Y-43659580D02*
X146833333Y-43707200D01*
X146833333Y-43707200D02*
X146928571Y-43754819D01*
X146928571Y-43754819D02*
X147119047Y-43754819D01*
X147119047Y-43754819D02*
X147214285Y-43707200D01*
X147214285Y-43707200D02*
X147261904Y-43659580D01*
X147261904Y-43659580D02*
X147309523Y-43564342D01*
X147309523Y-43564342D02*
X147309523Y-43326247D01*
X147309523Y-43326247D02*
X147261904Y-43231009D01*
X147261904Y-43231009D02*
X147214285Y-43183390D01*
X147214285Y-43183390D02*
X147119047Y-43135771D01*
X147119047Y-43135771D02*
X146928571Y-43135771D01*
X146928571Y-43135771D02*
X146833333Y-43183390D01*
X146833333Y-43183390D02*
X146785714Y-43231009D01*
X146785714Y-43231009D02*
X146738095Y-43326247D01*
X113738095Y-43754819D02*
X113738095Y-42754819D01*
X113738095Y-43231009D02*
X114309523Y-43231009D01*
X114309523Y-43754819D02*
X114309523Y-42754819D01*
X115261904Y-42754819D02*
X114785714Y-42754819D01*
X114785714Y-42754819D02*
X114738095Y-43231009D01*
X114738095Y-43231009D02*
X114785714Y-43183390D01*
X114785714Y-43183390D02*
X114880952Y-43135771D01*
X114880952Y-43135771D02*
X115119047Y-43135771D01*
X115119047Y-43135771D02*
X115214285Y-43183390D01*
X115214285Y-43183390D02*
X115261904Y-43231009D01*
X115261904Y-43231009D02*
X115309523Y-43326247D01*
X115309523Y-43326247D02*
X115309523Y-43564342D01*
X115309523Y-43564342D02*
X115261904Y-43659580D01*
X115261904Y-43659580D02*
X115214285Y-43707200D01*
X115214285Y-43707200D02*
X115119047Y-43754819D01*
X115119047Y-43754819D02*
X114880952Y-43754819D01*
X114880952Y-43754819D02*
X114785714Y-43707200D01*
X114785714Y-43707200D02*
X114738095Y-43659580D01*
X152738095Y-144754819D02*
X152738095Y-143754819D01*
X152738095Y-144231009D02*
X153309523Y-144231009D01*
X153309523Y-144754819D02*
X153309523Y-143754819D01*
X154214285Y-144088152D02*
X154214285Y-144754819D01*
X153976190Y-143707200D02*
X153738095Y-144421485D01*
X153738095Y-144421485D02*
X154357142Y-144421485D01*
X106738095Y-144754819D02*
X106738095Y-143754819D01*
X106738095Y-144231009D02*
X107309523Y-144231009D01*
X107309523Y-144754819D02*
X107309523Y-143754819D01*
X107690476Y-143754819D02*
X108309523Y-143754819D01*
X108309523Y-143754819D02*
X107976190Y-144135771D01*
X107976190Y-144135771D02*
X108119047Y-144135771D01*
X108119047Y-144135771D02*
X108214285Y-144183390D01*
X108214285Y-144183390D02*
X108261904Y-144231009D01*
X108261904Y-144231009D02*
X108309523Y-144326247D01*
X108309523Y-144326247D02*
X108309523Y-144564342D01*
X108309523Y-144564342D02*
X108261904Y-144659580D01*
X108261904Y-144659580D02*
X108214285Y-144707200D01*
X108214285Y-144707200D02*
X108119047Y-144754819D01*
X108119047Y-144754819D02*
X107833333Y-144754819D01*
X107833333Y-144754819D02*
X107738095Y-144707200D01*
X107738095Y-144707200D02*
X107690476Y-144659580D01*
X157738095Y-89754819D02*
X157738095Y-88754819D01*
X157738095Y-89231009D02*
X158309523Y-89231009D01*
X158309523Y-89754819D02*
X158309523Y-88754819D01*
X158738095Y-88850057D02*
X158785714Y-88802438D01*
X158785714Y-88802438D02*
X158880952Y-88754819D01*
X158880952Y-88754819D02*
X159119047Y-88754819D01*
X159119047Y-88754819D02*
X159214285Y-88802438D01*
X159214285Y-88802438D02*
X159261904Y-88850057D01*
X159261904Y-88850057D02*
X159309523Y-88945295D01*
X159309523Y-88945295D02*
X159309523Y-89040533D01*
X159309523Y-89040533D02*
X159261904Y-89183390D01*
X159261904Y-89183390D02*
X158690476Y-89754819D01*
X158690476Y-89754819D02*
X159309523Y-89754819D01*
X101738095Y-89754819D02*
X101738095Y-88754819D01*
X101738095Y-89231009D02*
X102309523Y-89231009D01*
X102309523Y-89754819D02*
X102309523Y-88754819D01*
X103309523Y-89754819D02*
X102738095Y-89754819D01*
X103023809Y-89754819D02*
X103023809Y-88754819D01*
X103023809Y-88754819D02*
X102928571Y-88897676D01*
X102928571Y-88897676D02*
X102833333Y-88992914D01*
X102833333Y-88992914D02*
X102738095Y-89040533D01*
X151903333Y-66229580D02*
X151855714Y-66277200D01*
X151855714Y-66277200D02*
X151712857Y-66324819D01*
X151712857Y-66324819D02*
X151617619Y-66324819D01*
X151617619Y-66324819D02*
X151474762Y-66277200D01*
X151474762Y-66277200D02*
X151379524Y-66181961D01*
X151379524Y-66181961D02*
X151331905Y-66086723D01*
X151331905Y-66086723D02*
X151284286Y-65896247D01*
X151284286Y-65896247D02*
X151284286Y-65753390D01*
X151284286Y-65753390D02*
X151331905Y-65562914D01*
X151331905Y-65562914D02*
X151379524Y-65467676D01*
X151379524Y-65467676D02*
X151474762Y-65372438D01*
X151474762Y-65372438D02*
X151617619Y-65324819D01*
X151617619Y-65324819D02*
X151712857Y-65324819D01*
X151712857Y-65324819D02*
X151855714Y-65372438D01*
X151855714Y-65372438D02*
X151903333Y-65420057D01*
X152284286Y-65420057D02*
X152331905Y-65372438D01*
X152331905Y-65372438D02*
X152427143Y-65324819D01*
X152427143Y-65324819D02*
X152665238Y-65324819D01*
X152665238Y-65324819D02*
X152760476Y-65372438D01*
X152760476Y-65372438D02*
X152808095Y-65420057D01*
X152808095Y-65420057D02*
X152855714Y-65515295D01*
X152855714Y-65515295D02*
X152855714Y-65610533D01*
X152855714Y-65610533D02*
X152808095Y-65753390D01*
X152808095Y-65753390D02*
X152236667Y-66324819D01*
X152236667Y-66324819D02*
X152855714Y-66324819D01*
X149243809Y-67648628D02*
X149243809Y-68124819D01*
X148910476Y-67124819D02*
X149243809Y-67648628D01*
X149243809Y-67648628D02*
X149577142Y-67124819D01*
X150434285Y-68124819D02*
X149862857Y-68124819D01*
X150148571Y-68124819D02*
X150148571Y-67124819D01*
X150148571Y-67124819D02*
X150053333Y-67267676D01*
X150053333Y-67267676D02*
X149958095Y-67362914D01*
X149958095Y-67362914D02*
X149862857Y-67410533D01*
X142733333Y-68549580D02*
X142685714Y-68597200D01*
X142685714Y-68597200D02*
X142542857Y-68644819D01*
X142542857Y-68644819D02*
X142447619Y-68644819D01*
X142447619Y-68644819D02*
X142304762Y-68597200D01*
X142304762Y-68597200D02*
X142209524Y-68501961D01*
X142209524Y-68501961D02*
X142161905Y-68406723D01*
X142161905Y-68406723D02*
X142114286Y-68216247D01*
X142114286Y-68216247D02*
X142114286Y-68073390D01*
X142114286Y-68073390D02*
X142161905Y-67882914D01*
X142161905Y-67882914D02*
X142209524Y-67787676D01*
X142209524Y-67787676D02*
X142304762Y-67692438D01*
X142304762Y-67692438D02*
X142447619Y-67644819D01*
X142447619Y-67644819D02*
X142542857Y-67644819D01*
X142542857Y-67644819D02*
X142685714Y-67692438D01*
X142685714Y-67692438D02*
X142733333Y-67740057D01*
X143066667Y-67644819D02*
X143685714Y-67644819D01*
X143685714Y-67644819D02*
X143352381Y-68025771D01*
X143352381Y-68025771D02*
X143495238Y-68025771D01*
X143495238Y-68025771D02*
X143590476Y-68073390D01*
X143590476Y-68073390D02*
X143638095Y-68121009D01*
X143638095Y-68121009D02*
X143685714Y-68216247D01*
X143685714Y-68216247D02*
X143685714Y-68454342D01*
X143685714Y-68454342D02*
X143638095Y-68549580D01*
X143638095Y-68549580D02*
X143590476Y-68597200D01*
X143590476Y-68597200D02*
X143495238Y-68644819D01*
X143495238Y-68644819D02*
X143209524Y-68644819D01*
X143209524Y-68644819D02*
X143114286Y-68597200D01*
X143114286Y-68597200D02*
X143066667Y-68549580D01*
X154433809Y-76168628D02*
X154433809Y-76644819D01*
X154100476Y-75644819D02*
X154433809Y-76168628D01*
X154433809Y-76168628D02*
X154767142Y-75644819D01*
X155052857Y-75740057D02*
X155100476Y-75692438D01*
X155100476Y-75692438D02*
X155195714Y-75644819D01*
X155195714Y-75644819D02*
X155433809Y-75644819D01*
X155433809Y-75644819D02*
X155529047Y-75692438D01*
X155529047Y-75692438D02*
X155576666Y-75740057D01*
X155576666Y-75740057D02*
X155624285Y-75835295D01*
X155624285Y-75835295D02*
X155624285Y-75930533D01*
X155624285Y-75930533D02*
X155576666Y-76073390D01*
X155576666Y-76073390D02*
X155005238Y-76644819D01*
X155005238Y-76644819D02*
X155624285Y-76644819D01*
X152046666Y-57984819D02*
X152046666Y-58699104D01*
X152046666Y-58699104D02*
X151999047Y-58841961D01*
X151999047Y-58841961D02*
X151903809Y-58937200D01*
X151903809Y-58937200D02*
X151760952Y-58984819D01*
X151760952Y-58984819D02*
X151665714Y-58984819D01*
X153046666Y-58984819D02*
X152475238Y-58984819D01*
X152760952Y-58984819D02*
X152760952Y-57984819D01*
X152760952Y-57984819D02*
X152665714Y-58127676D01*
X152665714Y-58127676D02*
X152570476Y-58222914D01*
X152570476Y-58222914D02*
X152475238Y-58270533D01*
X142813333Y-66454819D02*
X142337143Y-66454819D01*
X142337143Y-66454819D02*
X142337143Y-65454819D01*
X143670476Y-66454819D02*
X143099048Y-66454819D01*
X143384762Y-66454819D02*
X143384762Y-65454819D01*
X143384762Y-65454819D02*
X143289524Y-65597676D01*
X143289524Y-65597676D02*
X143194286Y-65692914D01*
X143194286Y-65692914D02*
X143099048Y-65740533D01*
X147593333Y-75324819D02*
X147260000Y-74848628D01*
X147021905Y-75324819D02*
X147021905Y-74324819D01*
X147021905Y-74324819D02*
X147402857Y-74324819D01*
X147402857Y-74324819D02*
X147498095Y-74372438D01*
X147498095Y-74372438D02*
X147545714Y-74420057D01*
X147545714Y-74420057D02*
X147593333Y-74515295D01*
X147593333Y-74515295D02*
X147593333Y-74658152D01*
X147593333Y-74658152D02*
X147545714Y-74753390D01*
X147545714Y-74753390D02*
X147498095Y-74801009D01*
X147498095Y-74801009D02*
X147402857Y-74848628D01*
X147402857Y-74848628D02*
X147021905Y-74848628D01*
X147974286Y-74420057D02*
X148021905Y-74372438D01*
X148021905Y-74372438D02*
X148117143Y-74324819D01*
X148117143Y-74324819D02*
X148355238Y-74324819D01*
X148355238Y-74324819D02*
X148450476Y-74372438D01*
X148450476Y-74372438D02*
X148498095Y-74420057D01*
X148498095Y-74420057D02*
X148545714Y-74515295D01*
X148545714Y-74515295D02*
X148545714Y-74610533D01*
X148545714Y-74610533D02*
X148498095Y-74753390D01*
X148498095Y-74753390D02*
X147926667Y-75324819D01*
X147926667Y-75324819D02*
X148545714Y-75324819D01*
X142653333Y-74444819D02*
X142177143Y-74444819D01*
X142177143Y-74444819D02*
X142177143Y-73444819D01*
X142939048Y-73540057D02*
X142986667Y-73492438D01*
X142986667Y-73492438D02*
X143081905Y-73444819D01*
X143081905Y-73444819D02*
X143320000Y-73444819D01*
X143320000Y-73444819D02*
X143415238Y-73492438D01*
X143415238Y-73492438D02*
X143462857Y-73540057D01*
X143462857Y-73540057D02*
X143510476Y-73635295D01*
X143510476Y-73635295D02*
X143510476Y-73730533D01*
X143510476Y-73730533D02*
X143462857Y-73873390D01*
X143462857Y-73873390D02*
X142891429Y-74444819D01*
X142891429Y-74444819D02*
X143510476Y-74444819D01*
X142653333Y-71839580D02*
X142605714Y-71887200D01*
X142605714Y-71887200D02*
X142462857Y-71934819D01*
X142462857Y-71934819D02*
X142367619Y-71934819D01*
X142367619Y-71934819D02*
X142224762Y-71887200D01*
X142224762Y-71887200D02*
X142129524Y-71791961D01*
X142129524Y-71791961D02*
X142081905Y-71696723D01*
X142081905Y-71696723D02*
X142034286Y-71506247D01*
X142034286Y-71506247D02*
X142034286Y-71363390D01*
X142034286Y-71363390D02*
X142081905Y-71172914D01*
X142081905Y-71172914D02*
X142129524Y-71077676D01*
X142129524Y-71077676D02*
X142224762Y-70982438D01*
X142224762Y-70982438D02*
X142367619Y-70934819D01*
X142367619Y-70934819D02*
X142462857Y-70934819D01*
X142462857Y-70934819D02*
X142605714Y-70982438D01*
X142605714Y-70982438D02*
X142653333Y-71030057D01*
X143510476Y-71268152D02*
X143510476Y-71934819D01*
X143272381Y-70887200D02*
X143034286Y-71601485D01*
X143034286Y-71601485D02*
X143653333Y-71601485D01*
X147643333Y-70979580D02*
X147595714Y-71027200D01*
X147595714Y-71027200D02*
X147452857Y-71074819D01*
X147452857Y-71074819D02*
X147357619Y-71074819D01*
X147357619Y-71074819D02*
X147214762Y-71027200D01*
X147214762Y-71027200D02*
X147119524Y-70931961D01*
X147119524Y-70931961D02*
X147071905Y-70836723D01*
X147071905Y-70836723D02*
X147024286Y-70646247D01*
X147024286Y-70646247D02*
X147024286Y-70503390D01*
X147024286Y-70503390D02*
X147071905Y-70312914D01*
X147071905Y-70312914D02*
X147119524Y-70217676D01*
X147119524Y-70217676D02*
X147214762Y-70122438D01*
X147214762Y-70122438D02*
X147357619Y-70074819D01*
X147357619Y-70074819D02*
X147452857Y-70074819D01*
X147452857Y-70074819D02*
X147595714Y-70122438D01*
X147595714Y-70122438D02*
X147643333Y-70170057D01*
X148500476Y-70074819D02*
X148310000Y-70074819D01*
X148310000Y-70074819D02*
X148214762Y-70122438D01*
X148214762Y-70122438D02*
X148167143Y-70170057D01*
X148167143Y-70170057D02*
X148071905Y-70312914D01*
X148071905Y-70312914D02*
X148024286Y-70503390D01*
X148024286Y-70503390D02*
X148024286Y-70884342D01*
X148024286Y-70884342D02*
X148071905Y-70979580D01*
X148071905Y-70979580D02*
X148119524Y-71027200D01*
X148119524Y-71027200D02*
X148214762Y-71074819D01*
X148214762Y-71074819D02*
X148405238Y-71074819D01*
X148405238Y-71074819D02*
X148500476Y-71027200D01*
X148500476Y-71027200D02*
X148548095Y-70979580D01*
X148548095Y-70979580D02*
X148595714Y-70884342D01*
X148595714Y-70884342D02*
X148595714Y-70646247D01*
X148595714Y-70646247D02*
X148548095Y-70551009D01*
X148548095Y-70551009D02*
X148500476Y-70503390D01*
X148500476Y-70503390D02*
X148405238Y-70455771D01*
X148405238Y-70455771D02*
X148214762Y-70455771D01*
X148214762Y-70455771D02*
X148119524Y-70503390D01*
X148119524Y-70503390D02*
X148071905Y-70551009D01*
X148071905Y-70551009D02*
X148024286Y-70646247D01*
X147693333Y-69779580D02*
X147645714Y-69827200D01*
X147645714Y-69827200D02*
X147502857Y-69874819D01*
X147502857Y-69874819D02*
X147407619Y-69874819D01*
X147407619Y-69874819D02*
X147264762Y-69827200D01*
X147264762Y-69827200D02*
X147169524Y-69731961D01*
X147169524Y-69731961D02*
X147121905Y-69636723D01*
X147121905Y-69636723D02*
X147074286Y-69446247D01*
X147074286Y-69446247D02*
X147074286Y-69303390D01*
X147074286Y-69303390D02*
X147121905Y-69112914D01*
X147121905Y-69112914D02*
X147169524Y-69017676D01*
X147169524Y-69017676D02*
X147264762Y-68922438D01*
X147264762Y-68922438D02*
X147407619Y-68874819D01*
X147407619Y-68874819D02*
X147502857Y-68874819D01*
X147502857Y-68874819D02*
X147645714Y-68922438D01*
X147645714Y-68922438D02*
X147693333Y-68970057D01*
X148598095Y-68874819D02*
X148121905Y-68874819D01*
X148121905Y-68874819D02*
X148074286Y-69351009D01*
X148074286Y-69351009D02*
X148121905Y-69303390D01*
X148121905Y-69303390D02*
X148217143Y-69255771D01*
X148217143Y-69255771D02*
X148455238Y-69255771D01*
X148455238Y-69255771D02*
X148550476Y-69303390D01*
X148550476Y-69303390D02*
X148598095Y-69351009D01*
X148598095Y-69351009D02*
X148645714Y-69446247D01*
X148645714Y-69446247D02*
X148645714Y-69684342D01*
X148645714Y-69684342D02*
X148598095Y-69779580D01*
X148598095Y-69779580D02*
X148550476Y-69827200D01*
X148550476Y-69827200D02*
X148455238Y-69874819D01*
X148455238Y-69874819D02*
X148217143Y-69874819D01*
X148217143Y-69874819D02*
X148121905Y-69827200D01*
X148121905Y-69827200D02*
X148074286Y-69779580D01*
X147753333Y-65544819D02*
X147420000Y-65068628D01*
X147181905Y-65544819D02*
X147181905Y-64544819D01*
X147181905Y-64544819D02*
X147562857Y-64544819D01*
X147562857Y-64544819D02*
X147658095Y-64592438D01*
X147658095Y-64592438D02*
X147705714Y-64640057D01*
X147705714Y-64640057D02*
X147753333Y-64735295D01*
X147753333Y-64735295D02*
X147753333Y-64878152D01*
X147753333Y-64878152D02*
X147705714Y-64973390D01*
X147705714Y-64973390D02*
X147658095Y-65021009D01*
X147658095Y-65021009D02*
X147562857Y-65068628D01*
X147562857Y-65068628D02*
X147181905Y-65068628D01*
X148705714Y-65544819D02*
X148134286Y-65544819D01*
X148420000Y-65544819D02*
X148420000Y-64544819D01*
X148420000Y-64544819D02*
X148324762Y-64687676D01*
X148324762Y-64687676D02*
X148229524Y-64782914D01*
X148229524Y-64782914D02*
X148134286Y-64830533D01*
X149646666Y-74594819D02*
X149646666Y-75309104D01*
X149646666Y-75309104D02*
X149599047Y-75451961D01*
X149599047Y-75451961D02*
X149503809Y-75547200D01*
X149503809Y-75547200D02*
X149360952Y-75594819D01*
X149360952Y-75594819D02*
X149265714Y-75594819D01*
X150075238Y-74690057D02*
X150122857Y-74642438D01*
X150122857Y-74642438D02*
X150218095Y-74594819D01*
X150218095Y-74594819D02*
X150456190Y-74594819D01*
X150456190Y-74594819D02*
X150551428Y-74642438D01*
X150551428Y-74642438D02*
X150599047Y-74690057D01*
X150599047Y-74690057D02*
X150646666Y-74785295D01*
X150646666Y-74785295D02*
X150646666Y-74880533D01*
X150646666Y-74880533D02*
X150599047Y-75023390D01*
X150599047Y-75023390D02*
X150027619Y-75594819D01*
X150027619Y-75594819D02*
X150646666Y-75594819D01*
D11*
%TO.C,C2*%
X151929420Y-67810000D02*
X152210580Y-67810000D01*
X151929420Y-66790000D02*
X152210580Y-66790000D01*
%TO.C,Y1*%
X154455000Y-71795000D02*
X153975000Y-71795000D01*
X154215000Y-71465000D01*
X154455000Y-71795000D01*
G36*
X154455000Y-71795000D02*
G01*
X153975000Y-71795000D01*
X154215000Y-71465000D01*
X154455000Y-71795000D01*
G37*
X152002500Y-71640000D02*
X153502500Y-71640000D01*
X152002500Y-71640000D02*
X150502500Y-71640000D01*
X152002500Y-68420000D02*
X153502500Y-68420000D01*
X152002500Y-68420000D02*
X150502500Y-68420000D01*
%TO.C,C1*%
X152990000Y-73610580D02*
X152990000Y-73329420D01*
X151970000Y-73610580D02*
X151970000Y-73329420D01*
%TO.C,C3*%
X145080000Y-68299420D02*
X145080000Y-68580580D01*
X144060000Y-68299420D02*
X144060000Y-68580580D01*
%TO.C,Y2*%
X156020000Y-73370000D02*
X156020000Y-74010000D01*
X155290000Y-75400000D02*
X155980000Y-75400000D01*
X153800000Y-73370000D02*
X153800000Y-74010000D01*
%TO.C,J1*%
X155490000Y-62940000D02*
X154440000Y-62940000D01*
X155490000Y-61790000D02*
X155490000Y-62940000D01*
X150440000Y-59820000D02*
X154320000Y-59820000D01*
X150320000Y-62940000D02*
X150320000Y-63930000D01*
X149270000Y-62940000D02*
X150320000Y-62940000D01*
X149270000Y-61790000D02*
X149270000Y-62940000D01*
%TO.C,L1*%
X145542779Y-66570000D02*
X145217221Y-66570000D01*
X145542779Y-65550000D02*
X145217221Y-65550000D01*
%TO.C,R2*%
X148392500Y-72922258D02*
X148392500Y-72447742D01*
X147347500Y-72922258D02*
X147347500Y-72447742D01*
%TO.C,L2*%
X145452779Y-74540000D02*
X145127221Y-74540000D01*
X145452779Y-73520000D02*
X145127221Y-73520000D01*
%TO.C,C4*%
X145020000Y-71499420D02*
X145020000Y-71780580D01*
X144000000Y-71499420D02*
X144000000Y-71780580D01*
%TO.C,C6*%
X146720000Y-71529420D02*
X146720000Y-71810580D01*
X145700000Y-71529420D02*
X145700000Y-71810580D01*
%TO.C,C5*%
X146740000Y-68299420D02*
X146740000Y-68580580D01*
X145720000Y-68299420D02*
X145720000Y-68580580D01*
%TO.C,R1*%
X148442500Y-66992742D02*
X148442500Y-67467258D01*
X147397500Y-66992742D02*
X147397500Y-67467258D01*
%TO.C,J2*%
X151110000Y-74250000D02*
X149210000Y-74250000D01*
X151110000Y-72350000D02*
X151110000Y-74250000D01*
X149210000Y-74250000D02*
X149210000Y-72350000D01*
X149210000Y-72350000D02*
X151110000Y-72350000D01*
%TD*%
%LPC*%
D12*
%TO.C,H6*%
X146500000Y-46500000D03*
%TD*%
%TO.C,H5*%
X114500000Y-46500000D03*
%TD*%
%TO.C,H4*%
X153500000Y-147500000D03*
%TD*%
%TO.C,H3*%
X107500000Y-147500000D03*
%TD*%
%TO.C,H2*%
X158500000Y-92500000D03*
%TD*%
%TO.C,H1*%
X102500000Y-92500000D03*
%TD*%
D13*
%TO.C,C2*%
X152845000Y-67300000D03*
X151295000Y-67300000D03*
%TD*%
D14*
%TO.C,Y1*%
X149890000Y-71030000D03*
X149890000Y-70530000D03*
X149890000Y-70030000D03*
X149890000Y-69530000D03*
X149890000Y-69030000D03*
X154115000Y-69030000D03*
X154115000Y-69530000D03*
X154115000Y-70030000D03*
X154115000Y-70530000D03*
X154115000Y-71030000D03*
%TD*%
D15*
%TO.C,C1*%
X152480000Y-72695000D03*
X152480000Y-74245000D03*
%TD*%
D16*
%TO.C,C3*%
X144570000Y-69215000D03*
X144570000Y-67665000D03*
%TD*%
D17*
%TO.C,Y2*%
X154210000Y-74740000D03*
X154210000Y-72640000D03*
X155610000Y-72640000D03*
X155610000Y-74740000D03*
%TD*%
D18*
%TO.C,J1*%
X155180000Y-60630000D03*
X149580000Y-60630000D03*
D19*
X153880000Y-63155000D03*
X152880000Y-63155000D03*
X151880000Y-63155000D03*
X150880000Y-63155000D03*
%TD*%
D20*
%TO.C,L1*%
X144592500Y-66060000D03*
X146167500Y-66060000D03*
%TD*%
D21*
%TO.C,R2*%
X147870000Y-71860000D03*
X147870000Y-73510000D03*
%TD*%
D20*
%TO.C,L2*%
X144502500Y-74030000D03*
X146077500Y-74030000D03*
%TD*%
D16*
%TO.C,C4*%
X144510000Y-72415000D03*
X144510000Y-70865000D03*
%TD*%
%TO.C,C6*%
X146210000Y-72445000D03*
X146210000Y-70895000D03*
%TD*%
%TO.C,C5*%
X146230000Y-69215000D03*
X146230000Y-67665000D03*
%TD*%
D22*
%TO.C,R1*%
X147920000Y-68055000D03*
X147920000Y-66405000D03*
%TD*%
D23*
%TO.C,J2*%
X150160000Y-73300000D03*
%TD*%
%LPD*%
M02*
