%TF.GenerationSoftware,KiCad,Pcbnew,8.0.8*%
%TF.CreationDate,2025-04-16T18:52:08+01:00*%
%TF.ProjectId,Front_panel_Tx,46726f6e-745f-4706-916e-656c5f54782e,rev?*%
%TF.SameCoordinates,Original*%
%TF.FileFunction,Profile,NP*%
%FSLAX46Y46*%
G04 Gerber Fmt 4.6, Leading zero omitted, Abs format (unit mm)*
G04 Created by KiCad (PCBNEW 8.0.8) date 2025-04-16 18:52:08*
%MOMM*%
%LPD*%
G01*
G04 APERTURE LIST*
%TA.AperFunction,Profile*%
%ADD10C,0.050000*%
%TD*%
G04 APERTURE END LIST*
D10*
X150875000Y-133500000D02*
G75*
G02*
X144125000Y-133500000I-3375000J0D01*
G01*
X144125000Y-133500000D02*
G75*
G02*
X150875000Y-133500000I3375000J0D01*
G01*
X100000000Y-148000000D02*
X100000000Y-46000000D01*
X100000000Y-46000000D02*
G75*
G02*
X102000000Y-44000000I2000000J0D01*
G01*
X117500000Y-124500000D02*
X143500000Y-124500000D01*
X161000000Y-46000000D02*
X161000000Y-148000000D01*
X159000000Y-150000000D02*
X102000000Y-150000000D01*
X133875000Y-142500000D02*
G75*
G02*
X127125000Y-142500000I-3375000J0D01*
G01*
X127125000Y-142500000D02*
G75*
G02*
X133875000Y-142500000I3375000J0D01*
G01*
X150875000Y-142500000D02*
G75*
G02*
X144125000Y-142500000I-3375000J0D01*
G01*
X144125000Y-142500000D02*
G75*
G02*
X150875000Y-142500000I3375000J0D01*
G01*
X143500000Y-124500000D02*
X143500000Y-98500000D01*
X161000000Y-148000000D02*
G75*
G02*
X159000000Y-150000000I-2000000J0D01*
G01*
X159000000Y-44000000D02*
G75*
G02*
X161000000Y-46000000I0J-2000000D01*
G01*
X102000000Y-150000000D02*
G75*
G02*
X100000000Y-148000000I0J2000000D01*
G01*
X116875000Y-133500000D02*
G75*
G02*
X110125000Y-133500000I-3375000J0D01*
G01*
X110125000Y-133500000D02*
G75*
G02*
X116875000Y-133500000I3375000J0D01*
G01*
X133875000Y-133500000D02*
G75*
G02*
X127125000Y-133500000I-3375000J0D01*
G01*
X127125000Y-133500000D02*
G75*
G02*
X133875000Y-133500000I3375000J0D01*
G01*
X102000000Y-44000000D02*
X159000000Y-44000000D01*
X143500000Y-98500000D02*
X117500000Y-98500000D01*
X117500000Y-98500000D02*
X117500000Y-124500000D01*
X116875000Y-142500000D02*
G75*
G02*
X110125000Y-142500000I-3375000J0D01*
G01*
X110125000Y-142500000D02*
G75*
G02*
X116875000Y-142500000I3375000J0D01*
G01*
X137500000Y-69000000D02*
G75*
G02*
X117500000Y-69000000I-10000000J0D01*
G01*
X117500000Y-69000000D02*
G75*
G02*
X137500000Y-69000000I10000000J0D01*
G01*
M02*
