%TF.GenerationSoftware,KiCad,Pcbnew,8.0.8*%
%TF.CreationDate,2025-04-16T18:52:08+01:00*%
%TF.ProjectId,Front_panel_Tx,46726f6e-745f-4706-916e-656c5f54782e,rev?*%
%TF.SameCoordinates,Original*%
%TF.FileFunction,Other,Comment*%
%FSLAX46Y46*%
G04 Gerber Fmt 4.6, Leading zero omitted, Abs format (unit mm)*
G04 Created by KiCad (PCBNEW 8.0.8) date 2025-04-16 18:52:08*
%MOMM*%
%LPD*%
G01*
G04 APERTURE LIST*
%ADD10C,0.187500*%
%ADD11C,0.150000*%
G04 APERTURE END LIST*
D10*
X83307640Y-31983821D02*
X83236212Y-32055250D01*
X83236212Y-32055250D02*
X83021926Y-32126678D01*
X83021926Y-32126678D02*
X82879069Y-32126678D01*
X82879069Y-32126678D02*
X82664783Y-32055250D01*
X82664783Y-32055250D02*
X82521926Y-31912392D01*
X82521926Y-31912392D02*
X82450497Y-31769535D01*
X82450497Y-31769535D02*
X82379069Y-31483821D01*
X82379069Y-31483821D02*
X82379069Y-31269535D01*
X82379069Y-31269535D02*
X82450497Y-30983821D01*
X82450497Y-30983821D02*
X82521926Y-30840964D01*
X82521926Y-30840964D02*
X82664783Y-30698107D01*
X82664783Y-30698107D02*
X82879069Y-30626678D01*
X82879069Y-30626678D02*
X83021926Y-30626678D01*
X83021926Y-30626678D02*
X83236212Y-30698107D01*
X83236212Y-30698107D02*
X83307640Y-30769535D01*
X83950497Y-32126678D02*
X83950497Y-30626678D01*
X84593355Y-32126678D02*
X84593355Y-31340964D01*
X84593355Y-31340964D02*
X84521926Y-31198107D01*
X84521926Y-31198107D02*
X84379069Y-31126678D01*
X84379069Y-31126678D02*
X84164783Y-31126678D01*
X84164783Y-31126678D02*
X84021926Y-31198107D01*
X84021926Y-31198107D02*
X83950497Y-31269535D01*
X85879069Y-32055250D02*
X85736212Y-32126678D01*
X85736212Y-32126678D02*
X85450498Y-32126678D01*
X85450498Y-32126678D02*
X85307640Y-32055250D01*
X85307640Y-32055250D02*
X85236212Y-31912392D01*
X85236212Y-31912392D02*
X85236212Y-31340964D01*
X85236212Y-31340964D02*
X85307640Y-31198107D01*
X85307640Y-31198107D02*
X85450498Y-31126678D01*
X85450498Y-31126678D02*
X85736212Y-31126678D01*
X85736212Y-31126678D02*
X85879069Y-31198107D01*
X85879069Y-31198107D02*
X85950498Y-31340964D01*
X85950498Y-31340964D02*
X85950498Y-31483821D01*
X85950498Y-31483821D02*
X85236212Y-31626678D01*
X87236212Y-32055250D02*
X87093354Y-32126678D01*
X87093354Y-32126678D02*
X86807640Y-32126678D01*
X86807640Y-32126678D02*
X86664783Y-32055250D01*
X86664783Y-32055250D02*
X86593354Y-31983821D01*
X86593354Y-31983821D02*
X86521926Y-31840964D01*
X86521926Y-31840964D02*
X86521926Y-31412392D01*
X86521926Y-31412392D02*
X86593354Y-31269535D01*
X86593354Y-31269535D02*
X86664783Y-31198107D01*
X86664783Y-31198107D02*
X86807640Y-31126678D01*
X86807640Y-31126678D02*
X87093354Y-31126678D01*
X87093354Y-31126678D02*
X87236212Y-31198107D01*
X87879068Y-32126678D02*
X87879068Y-30626678D01*
X88021926Y-31555250D02*
X88450497Y-32126678D01*
X88450497Y-31126678D02*
X87879068Y-31698107D01*
X90879069Y-32126678D02*
X90879069Y-30626678D01*
X90879069Y-32055250D02*
X90736211Y-32126678D01*
X90736211Y-32126678D02*
X90450497Y-32126678D01*
X90450497Y-32126678D02*
X90307640Y-32055250D01*
X90307640Y-32055250D02*
X90236211Y-31983821D01*
X90236211Y-31983821D02*
X90164783Y-31840964D01*
X90164783Y-31840964D02*
X90164783Y-31412392D01*
X90164783Y-31412392D02*
X90236211Y-31269535D01*
X90236211Y-31269535D02*
X90307640Y-31198107D01*
X90307640Y-31198107D02*
X90450497Y-31126678D01*
X90450497Y-31126678D02*
X90736211Y-31126678D01*
X90736211Y-31126678D02*
X90879069Y-31198107D01*
X91593354Y-32126678D02*
X91593354Y-31126678D01*
X91593354Y-31412392D02*
X91664783Y-31269535D01*
X91664783Y-31269535D02*
X91736212Y-31198107D01*
X91736212Y-31198107D02*
X91879069Y-31126678D01*
X91879069Y-31126678D02*
X92021926Y-31126678D01*
X92521925Y-32126678D02*
X92521925Y-31126678D01*
X92521925Y-30626678D02*
X92450497Y-30698107D01*
X92450497Y-30698107D02*
X92521925Y-30769535D01*
X92521925Y-30769535D02*
X92593354Y-30698107D01*
X92593354Y-30698107D02*
X92521925Y-30626678D01*
X92521925Y-30626678D02*
X92521925Y-30769535D01*
X93450497Y-32126678D02*
X93307640Y-32055250D01*
X93307640Y-32055250D02*
X93236211Y-31912392D01*
X93236211Y-31912392D02*
X93236211Y-30626678D01*
X94236211Y-32126678D02*
X94093354Y-32055250D01*
X94093354Y-32055250D02*
X94021925Y-31912392D01*
X94021925Y-31912392D02*
X94021925Y-30626678D01*
X95950496Y-32126678D02*
X95950496Y-30626678D01*
X96593354Y-32126678D02*
X96593354Y-31340964D01*
X96593354Y-31340964D02*
X96521925Y-31198107D01*
X96521925Y-31198107D02*
X96379068Y-31126678D01*
X96379068Y-31126678D02*
X96164782Y-31126678D01*
X96164782Y-31126678D02*
X96021925Y-31198107D01*
X96021925Y-31198107D02*
X95950496Y-31269535D01*
X97521925Y-32126678D02*
X97379068Y-32055250D01*
X97379068Y-32055250D02*
X97307639Y-31983821D01*
X97307639Y-31983821D02*
X97236211Y-31840964D01*
X97236211Y-31840964D02*
X97236211Y-31412392D01*
X97236211Y-31412392D02*
X97307639Y-31269535D01*
X97307639Y-31269535D02*
X97379068Y-31198107D01*
X97379068Y-31198107D02*
X97521925Y-31126678D01*
X97521925Y-31126678D02*
X97736211Y-31126678D01*
X97736211Y-31126678D02*
X97879068Y-31198107D01*
X97879068Y-31198107D02*
X97950497Y-31269535D01*
X97950497Y-31269535D02*
X98021925Y-31412392D01*
X98021925Y-31412392D02*
X98021925Y-31840964D01*
X98021925Y-31840964D02*
X97950497Y-31983821D01*
X97950497Y-31983821D02*
X97879068Y-32055250D01*
X97879068Y-32055250D02*
X97736211Y-32126678D01*
X97736211Y-32126678D02*
X97521925Y-32126678D01*
X98879068Y-32126678D02*
X98736211Y-32055250D01*
X98736211Y-32055250D02*
X98664782Y-31912392D01*
X98664782Y-31912392D02*
X98664782Y-30626678D01*
X100021925Y-32055250D02*
X99879068Y-32126678D01*
X99879068Y-32126678D02*
X99593354Y-32126678D01*
X99593354Y-32126678D02*
X99450496Y-32055250D01*
X99450496Y-32055250D02*
X99379068Y-31912392D01*
X99379068Y-31912392D02*
X99379068Y-31340964D01*
X99379068Y-31340964D02*
X99450496Y-31198107D01*
X99450496Y-31198107D02*
X99593354Y-31126678D01*
X99593354Y-31126678D02*
X99879068Y-31126678D01*
X99879068Y-31126678D02*
X100021925Y-31198107D01*
X100021925Y-31198107D02*
X100093354Y-31340964D01*
X100093354Y-31340964D02*
X100093354Y-31483821D01*
X100093354Y-31483821D02*
X99379068Y-31626678D01*
X100664782Y-32055250D02*
X100807639Y-32126678D01*
X100807639Y-32126678D02*
X101093353Y-32126678D01*
X101093353Y-32126678D02*
X101236210Y-32055250D01*
X101236210Y-32055250D02*
X101307639Y-31912392D01*
X101307639Y-31912392D02*
X101307639Y-31840964D01*
X101307639Y-31840964D02*
X101236210Y-31698107D01*
X101236210Y-31698107D02*
X101093353Y-31626678D01*
X101093353Y-31626678D02*
X100879068Y-31626678D01*
X100879068Y-31626678D02*
X100736210Y-31555250D01*
X100736210Y-31555250D02*
X100664782Y-31412392D01*
X100664782Y-31412392D02*
X100664782Y-31340964D01*
X100664782Y-31340964D02*
X100736210Y-31198107D01*
X100736210Y-31198107D02*
X100879068Y-31126678D01*
X100879068Y-31126678D02*
X101093353Y-31126678D01*
X101093353Y-31126678D02*
X101236210Y-31198107D01*
X103021925Y-32055250D02*
X103164782Y-32126678D01*
X103164782Y-32126678D02*
X103450496Y-32126678D01*
X103450496Y-32126678D02*
X103593353Y-32055250D01*
X103593353Y-32055250D02*
X103664782Y-31912392D01*
X103664782Y-31912392D02*
X103664782Y-31840964D01*
X103664782Y-31840964D02*
X103593353Y-31698107D01*
X103593353Y-31698107D02*
X103450496Y-31626678D01*
X103450496Y-31626678D02*
X103236211Y-31626678D01*
X103236211Y-31626678D02*
X103093353Y-31555250D01*
X103093353Y-31555250D02*
X103021925Y-31412392D01*
X103021925Y-31412392D02*
X103021925Y-31340964D01*
X103021925Y-31340964D02*
X103093353Y-31198107D01*
X103093353Y-31198107D02*
X103236211Y-31126678D01*
X103236211Y-31126678D02*
X103450496Y-31126678D01*
X103450496Y-31126678D02*
X103593353Y-31198107D01*
X104307639Y-32126678D02*
X104307639Y-31126678D01*
X104307639Y-30626678D02*
X104236211Y-30698107D01*
X104236211Y-30698107D02*
X104307639Y-30769535D01*
X104307639Y-30769535D02*
X104379068Y-30698107D01*
X104379068Y-30698107D02*
X104307639Y-30626678D01*
X104307639Y-30626678D02*
X104307639Y-30769535D01*
X104879068Y-31126678D02*
X105664783Y-31126678D01*
X105664783Y-31126678D02*
X104879068Y-32126678D01*
X104879068Y-32126678D02*
X105664783Y-32126678D01*
X106807640Y-32055250D02*
X106664783Y-32126678D01*
X106664783Y-32126678D02*
X106379069Y-32126678D01*
X106379069Y-32126678D02*
X106236211Y-32055250D01*
X106236211Y-32055250D02*
X106164783Y-31912392D01*
X106164783Y-31912392D02*
X106164783Y-31340964D01*
X106164783Y-31340964D02*
X106236211Y-31198107D01*
X106236211Y-31198107D02*
X106379069Y-31126678D01*
X106379069Y-31126678D02*
X106664783Y-31126678D01*
X106664783Y-31126678D02*
X106807640Y-31198107D01*
X106807640Y-31198107D02*
X106879069Y-31340964D01*
X106879069Y-31340964D02*
X106879069Y-31483821D01*
X106879069Y-31483821D02*
X106164783Y-31626678D01*
X109307640Y-32126678D02*
X109307640Y-31340964D01*
X109307640Y-31340964D02*
X109236211Y-31198107D01*
X109236211Y-31198107D02*
X109093354Y-31126678D01*
X109093354Y-31126678D02*
X108807640Y-31126678D01*
X108807640Y-31126678D02*
X108664782Y-31198107D01*
X109307640Y-32055250D02*
X109164782Y-32126678D01*
X109164782Y-32126678D02*
X108807640Y-32126678D01*
X108807640Y-32126678D02*
X108664782Y-32055250D01*
X108664782Y-32055250D02*
X108593354Y-31912392D01*
X108593354Y-31912392D02*
X108593354Y-31769535D01*
X108593354Y-31769535D02*
X108664782Y-31626678D01*
X108664782Y-31626678D02*
X108807640Y-31555250D01*
X108807640Y-31555250D02*
X109164782Y-31555250D01*
X109164782Y-31555250D02*
X109307640Y-31483821D01*
X110021925Y-31126678D02*
X110021925Y-32126678D01*
X110021925Y-31269535D02*
X110093354Y-31198107D01*
X110093354Y-31198107D02*
X110236211Y-31126678D01*
X110236211Y-31126678D02*
X110450497Y-31126678D01*
X110450497Y-31126678D02*
X110593354Y-31198107D01*
X110593354Y-31198107D02*
X110664783Y-31340964D01*
X110664783Y-31340964D02*
X110664783Y-32126678D01*
X112021926Y-32126678D02*
X112021926Y-30626678D01*
X112021926Y-32055250D02*
X111879068Y-32126678D01*
X111879068Y-32126678D02*
X111593354Y-32126678D01*
X111593354Y-32126678D02*
X111450497Y-32055250D01*
X111450497Y-32055250D02*
X111379068Y-31983821D01*
X111379068Y-31983821D02*
X111307640Y-31840964D01*
X111307640Y-31840964D02*
X111307640Y-31412392D01*
X111307640Y-31412392D02*
X111379068Y-31269535D01*
X111379068Y-31269535D02*
X111450497Y-31198107D01*
X111450497Y-31198107D02*
X111593354Y-31126678D01*
X111593354Y-31126678D02*
X111879068Y-31126678D01*
X111879068Y-31126678D02*
X112021926Y-31198107D01*
X113879068Y-31126678D02*
X113879068Y-32626678D01*
X113879068Y-31198107D02*
X114021926Y-31126678D01*
X114021926Y-31126678D02*
X114307640Y-31126678D01*
X114307640Y-31126678D02*
X114450497Y-31198107D01*
X114450497Y-31198107D02*
X114521926Y-31269535D01*
X114521926Y-31269535D02*
X114593354Y-31412392D01*
X114593354Y-31412392D02*
X114593354Y-31840964D01*
X114593354Y-31840964D02*
X114521926Y-31983821D01*
X114521926Y-31983821D02*
X114450497Y-32055250D01*
X114450497Y-32055250D02*
X114307640Y-32126678D01*
X114307640Y-32126678D02*
X114021926Y-32126678D01*
X114021926Y-32126678D02*
X113879068Y-32055250D01*
X115450497Y-32126678D02*
X115307640Y-32055250D01*
X115307640Y-32055250D02*
X115236211Y-31983821D01*
X115236211Y-31983821D02*
X115164783Y-31840964D01*
X115164783Y-31840964D02*
X115164783Y-31412392D01*
X115164783Y-31412392D02*
X115236211Y-31269535D01*
X115236211Y-31269535D02*
X115307640Y-31198107D01*
X115307640Y-31198107D02*
X115450497Y-31126678D01*
X115450497Y-31126678D02*
X115664783Y-31126678D01*
X115664783Y-31126678D02*
X115807640Y-31198107D01*
X115807640Y-31198107D02*
X115879069Y-31269535D01*
X115879069Y-31269535D02*
X115950497Y-31412392D01*
X115950497Y-31412392D02*
X115950497Y-31840964D01*
X115950497Y-31840964D02*
X115879069Y-31983821D01*
X115879069Y-31983821D02*
X115807640Y-32055250D01*
X115807640Y-32055250D02*
X115664783Y-32126678D01*
X115664783Y-32126678D02*
X115450497Y-32126678D01*
X116521926Y-32055250D02*
X116664783Y-32126678D01*
X116664783Y-32126678D02*
X116950497Y-32126678D01*
X116950497Y-32126678D02*
X117093354Y-32055250D01*
X117093354Y-32055250D02*
X117164783Y-31912392D01*
X117164783Y-31912392D02*
X117164783Y-31840964D01*
X117164783Y-31840964D02*
X117093354Y-31698107D01*
X117093354Y-31698107D02*
X116950497Y-31626678D01*
X116950497Y-31626678D02*
X116736212Y-31626678D01*
X116736212Y-31626678D02*
X116593354Y-31555250D01*
X116593354Y-31555250D02*
X116521926Y-31412392D01*
X116521926Y-31412392D02*
X116521926Y-31340964D01*
X116521926Y-31340964D02*
X116593354Y-31198107D01*
X116593354Y-31198107D02*
X116736212Y-31126678D01*
X116736212Y-31126678D02*
X116950497Y-31126678D01*
X116950497Y-31126678D02*
X117093354Y-31198107D01*
X117807640Y-32126678D02*
X117807640Y-31126678D01*
X117807640Y-30626678D02*
X117736212Y-30698107D01*
X117736212Y-30698107D02*
X117807640Y-30769535D01*
X117807640Y-30769535D02*
X117879069Y-30698107D01*
X117879069Y-30698107D02*
X117807640Y-30626678D01*
X117807640Y-30626678D02*
X117807640Y-30769535D01*
X118307641Y-31126678D02*
X118879069Y-31126678D01*
X118521926Y-30626678D02*
X118521926Y-31912392D01*
X118521926Y-31912392D02*
X118593355Y-32055250D01*
X118593355Y-32055250D02*
X118736212Y-32126678D01*
X118736212Y-32126678D02*
X118879069Y-32126678D01*
X119379069Y-32126678D02*
X119379069Y-31126678D01*
X119379069Y-30626678D02*
X119307641Y-30698107D01*
X119307641Y-30698107D02*
X119379069Y-30769535D01*
X119379069Y-30769535D02*
X119450498Y-30698107D01*
X119450498Y-30698107D02*
X119379069Y-30626678D01*
X119379069Y-30626678D02*
X119379069Y-30769535D01*
X120307641Y-32126678D02*
X120164784Y-32055250D01*
X120164784Y-32055250D02*
X120093355Y-31983821D01*
X120093355Y-31983821D02*
X120021927Y-31840964D01*
X120021927Y-31840964D02*
X120021927Y-31412392D01*
X120021927Y-31412392D02*
X120093355Y-31269535D01*
X120093355Y-31269535D02*
X120164784Y-31198107D01*
X120164784Y-31198107D02*
X120307641Y-31126678D01*
X120307641Y-31126678D02*
X120521927Y-31126678D01*
X120521927Y-31126678D02*
X120664784Y-31198107D01*
X120664784Y-31198107D02*
X120736213Y-31269535D01*
X120736213Y-31269535D02*
X120807641Y-31412392D01*
X120807641Y-31412392D02*
X120807641Y-31840964D01*
X120807641Y-31840964D02*
X120736213Y-31983821D01*
X120736213Y-31983821D02*
X120664784Y-32055250D01*
X120664784Y-32055250D02*
X120521927Y-32126678D01*
X120521927Y-32126678D02*
X120307641Y-32126678D01*
X121450498Y-31126678D02*
X121450498Y-32126678D01*
X121450498Y-31269535D02*
X121521927Y-31198107D01*
X121521927Y-31198107D02*
X121664784Y-31126678D01*
X121664784Y-31126678D02*
X121879070Y-31126678D01*
X121879070Y-31126678D02*
X122021927Y-31198107D01*
X122021927Y-31198107D02*
X122093356Y-31340964D01*
X122093356Y-31340964D02*
X122093356Y-32126678D01*
X122807641Y-31983821D02*
X122879070Y-32055250D01*
X122879070Y-32055250D02*
X122807641Y-32126678D01*
X122807641Y-32126678D02*
X122736213Y-32055250D01*
X122736213Y-32055250D02*
X122807641Y-31983821D01*
X122807641Y-31983821D02*
X122807641Y-32126678D01*
X122807641Y-31555250D02*
X122736213Y-30698107D01*
X122736213Y-30698107D02*
X122807641Y-30626678D01*
X122807641Y-30626678D02*
X122879070Y-30698107D01*
X122879070Y-30698107D02*
X122807641Y-31555250D01*
X122807641Y-31555250D02*
X122807641Y-30626678D01*
D11*
%TO.C,H6*%
X148600000Y-46500000D02*
G75*
G02*
X144400000Y-46500000I-2100000J0D01*
G01*
X144400000Y-46500000D02*
G75*
G02*
X148600000Y-46500000I2100000J0D01*
G01*
%TO.C,H5*%
X116600000Y-46500000D02*
G75*
G02*
X112400000Y-46500000I-2100000J0D01*
G01*
X112400000Y-46500000D02*
G75*
G02*
X116600000Y-46500000I2100000J0D01*
G01*
%TO.C,H4*%
X155600000Y-147500000D02*
G75*
G02*
X151400000Y-147500000I-2100000J0D01*
G01*
X151400000Y-147500000D02*
G75*
G02*
X155600000Y-147500000I2100000J0D01*
G01*
%TO.C,H3*%
X109600000Y-147500000D02*
G75*
G02*
X105400000Y-147500000I-2100000J0D01*
G01*
X105400000Y-147500000D02*
G75*
G02*
X109600000Y-147500000I2100000J0D01*
G01*
%TO.C,H2*%
X160600000Y-92500000D02*
G75*
G02*
X156400000Y-92500000I-2100000J0D01*
G01*
X156400000Y-92500000D02*
G75*
G02*
X160600000Y-92500000I2100000J0D01*
G01*
%TO.C,H1*%
X104600000Y-92500000D02*
G75*
G02*
X100400000Y-92500000I-2100000J0D01*
G01*
X100400000Y-92500000D02*
G75*
G02*
X104600000Y-92500000I2100000J0D01*
G01*
%TD*%
M02*
