%TF.GenerationSoftware,KiCad,Pcbnew,8.0.5*%
%TF.CreationDate,2024-11-28T19:31:39+00:00*%
%TF.ProjectId,ScoutAM,53636f75-7441-44d2-9e6b-696361645f70,rev?*%
%TF.SameCoordinates,Original*%
%TF.FileFunction,Other,Comment*%
%FSLAX46Y46*%
G04 Gerber Fmt 4.6, Leading zero omitted, Abs format (unit mm)*
G04 Created by KiCad (PCBNEW 8.0.5) date 2024-11-28 19:31:39*
%MOMM*%
%LPD*%
G01*
G04 APERTURE LIST*
%ADD10C,0.150000*%
G04 APERTURE END LIST*
D10*
X87671009Y-61350476D02*
X87718628Y-61207619D01*
X87718628Y-61207619D02*
X87766247Y-61160000D01*
X87766247Y-61160000D02*
X87861485Y-61112381D01*
X87861485Y-61112381D02*
X88004342Y-61112381D01*
X88004342Y-61112381D02*
X88099580Y-61160000D01*
X88099580Y-61160000D02*
X88147200Y-61207619D01*
X88147200Y-61207619D02*
X88194819Y-61302857D01*
X88194819Y-61302857D02*
X88194819Y-61683809D01*
X88194819Y-61683809D02*
X87194819Y-61683809D01*
X87194819Y-61683809D02*
X87194819Y-61350476D01*
X87194819Y-61350476D02*
X87242438Y-61255238D01*
X87242438Y-61255238D02*
X87290057Y-61207619D01*
X87290057Y-61207619D02*
X87385295Y-61160000D01*
X87385295Y-61160000D02*
X87480533Y-61160000D01*
X87480533Y-61160000D02*
X87575771Y-61207619D01*
X87575771Y-61207619D02*
X87623390Y-61255238D01*
X87623390Y-61255238D02*
X87671009Y-61350476D01*
X87671009Y-61350476D02*
X87671009Y-61683809D01*
X88194819Y-60540952D02*
X88147200Y-60636190D01*
X88147200Y-60636190D02*
X88099580Y-60683809D01*
X88099580Y-60683809D02*
X88004342Y-60731428D01*
X88004342Y-60731428D02*
X87718628Y-60731428D01*
X87718628Y-60731428D02*
X87623390Y-60683809D01*
X87623390Y-60683809D02*
X87575771Y-60636190D01*
X87575771Y-60636190D02*
X87528152Y-60540952D01*
X87528152Y-60540952D02*
X87528152Y-60398095D01*
X87528152Y-60398095D02*
X87575771Y-60302857D01*
X87575771Y-60302857D02*
X87623390Y-60255238D01*
X87623390Y-60255238D02*
X87718628Y-60207619D01*
X87718628Y-60207619D02*
X88004342Y-60207619D01*
X88004342Y-60207619D02*
X88099580Y-60255238D01*
X88099580Y-60255238D02*
X88147200Y-60302857D01*
X88147200Y-60302857D02*
X88194819Y-60398095D01*
X88194819Y-60398095D02*
X88194819Y-60540952D01*
X88194819Y-59350476D02*
X87671009Y-59350476D01*
X87671009Y-59350476D02*
X87575771Y-59398095D01*
X87575771Y-59398095D02*
X87528152Y-59493333D01*
X87528152Y-59493333D02*
X87528152Y-59683809D01*
X87528152Y-59683809D02*
X87575771Y-59779047D01*
X88147200Y-59350476D02*
X88194819Y-59445714D01*
X88194819Y-59445714D02*
X88194819Y-59683809D01*
X88194819Y-59683809D02*
X88147200Y-59779047D01*
X88147200Y-59779047D02*
X88051961Y-59826666D01*
X88051961Y-59826666D02*
X87956723Y-59826666D01*
X87956723Y-59826666D02*
X87861485Y-59779047D01*
X87861485Y-59779047D02*
X87813866Y-59683809D01*
X87813866Y-59683809D02*
X87813866Y-59445714D01*
X87813866Y-59445714D02*
X87766247Y-59350476D01*
X88194819Y-58874285D02*
X87528152Y-58874285D01*
X87718628Y-58874285D02*
X87623390Y-58826666D01*
X87623390Y-58826666D02*
X87575771Y-58779047D01*
X87575771Y-58779047D02*
X87528152Y-58683809D01*
X87528152Y-58683809D02*
X87528152Y-58588571D01*
X88194819Y-57826666D02*
X87194819Y-57826666D01*
X88147200Y-57826666D02*
X88194819Y-57921904D01*
X88194819Y-57921904D02*
X88194819Y-58112380D01*
X88194819Y-58112380D02*
X88147200Y-58207618D01*
X88147200Y-58207618D02*
X88099580Y-58255237D01*
X88099580Y-58255237D02*
X88004342Y-58302856D01*
X88004342Y-58302856D02*
X87718628Y-58302856D01*
X87718628Y-58302856D02*
X87623390Y-58255237D01*
X87623390Y-58255237D02*
X87575771Y-58207618D01*
X87575771Y-58207618D02*
X87528152Y-58112380D01*
X87528152Y-58112380D02*
X87528152Y-57921904D01*
X87528152Y-57921904D02*
X87575771Y-57826666D01*
X87194819Y-56731427D02*
X87194819Y-56159999D01*
X88194819Y-56445713D02*
X87194819Y-56445713D01*
X88194819Y-55826665D02*
X87194819Y-55826665D01*
X88194819Y-55398094D02*
X87671009Y-55398094D01*
X87671009Y-55398094D02*
X87575771Y-55445713D01*
X87575771Y-55445713D02*
X87528152Y-55540951D01*
X87528152Y-55540951D02*
X87528152Y-55683808D01*
X87528152Y-55683808D02*
X87575771Y-55779046D01*
X87575771Y-55779046D02*
X87623390Y-55826665D01*
X88194819Y-54921903D02*
X87528152Y-54921903D01*
X87194819Y-54921903D02*
X87242438Y-54969522D01*
X87242438Y-54969522D02*
X87290057Y-54921903D01*
X87290057Y-54921903D02*
X87242438Y-54874284D01*
X87242438Y-54874284D02*
X87194819Y-54921903D01*
X87194819Y-54921903D02*
X87290057Y-54921903D01*
X88147200Y-54017142D02*
X88194819Y-54112380D01*
X88194819Y-54112380D02*
X88194819Y-54302856D01*
X88194819Y-54302856D02*
X88147200Y-54398094D01*
X88147200Y-54398094D02*
X88099580Y-54445713D01*
X88099580Y-54445713D02*
X88004342Y-54493332D01*
X88004342Y-54493332D02*
X87718628Y-54493332D01*
X87718628Y-54493332D02*
X87623390Y-54445713D01*
X87623390Y-54445713D02*
X87575771Y-54398094D01*
X87575771Y-54398094D02*
X87528152Y-54302856D01*
X87528152Y-54302856D02*
X87528152Y-54112380D01*
X87528152Y-54112380D02*
X87575771Y-54017142D01*
X88194819Y-53588570D02*
X87194819Y-53588570D01*
X87813866Y-53493332D02*
X88194819Y-53207618D01*
X87528152Y-53207618D02*
X87909104Y-53588570D01*
X87528152Y-52779046D02*
X88194819Y-52779046D01*
X87623390Y-52779046D02*
X87575771Y-52731427D01*
X87575771Y-52731427D02*
X87528152Y-52636189D01*
X87528152Y-52636189D02*
X87528152Y-52493332D01*
X87528152Y-52493332D02*
X87575771Y-52398094D01*
X87575771Y-52398094D02*
X87671009Y-52350475D01*
X87671009Y-52350475D02*
X88194819Y-52350475D01*
X88147200Y-51493332D02*
X88194819Y-51588570D01*
X88194819Y-51588570D02*
X88194819Y-51779046D01*
X88194819Y-51779046D02*
X88147200Y-51874284D01*
X88147200Y-51874284D02*
X88051961Y-51921903D01*
X88051961Y-51921903D02*
X87671009Y-51921903D01*
X87671009Y-51921903D02*
X87575771Y-51874284D01*
X87575771Y-51874284D02*
X87528152Y-51779046D01*
X87528152Y-51779046D02*
X87528152Y-51588570D01*
X87528152Y-51588570D02*
X87575771Y-51493332D01*
X87575771Y-51493332D02*
X87671009Y-51445713D01*
X87671009Y-51445713D02*
X87766247Y-51445713D01*
X87766247Y-51445713D02*
X87861485Y-51921903D01*
X88147200Y-51064760D02*
X88194819Y-50969522D01*
X88194819Y-50969522D02*
X88194819Y-50779046D01*
X88194819Y-50779046D02*
X88147200Y-50683808D01*
X88147200Y-50683808D02*
X88051961Y-50636189D01*
X88051961Y-50636189D02*
X88004342Y-50636189D01*
X88004342Y-50636189D02*
X87909104Y-50683808D01*
X87909104Y-50683808D02*
X87861485Y-50779046D01*
X87861485Y-50779046D02*
X87861485Y-50921903D01*
X87861485Y-50921903D02*
X87813866Y-51017141D01*
X87813866Y-51017141D02*
X87718628Y-51064760D01*
X87718628Y-51064760D02*
X87671009Y-51064760D01*
X87671009Y-51064760D02*
X87575771Y-51017141D01*
X87575771Y-51017141D02*
X87528152Y-50921903D01*
X87528152Y-50921903D02*
X87528152Y-50779046D01*
X87528152Y-50779046D02*
X87575771Y-50683808D01*
X88147200Y-50255236D02*
X88194819Y-50159998D01*
X88194819Y-50159998D02*
X88194819Y-49969522D01*
X88194819Y-49969522D02*
X88147200Y-49874284D01*
X88147200Y-49874284D02*
X88051961Y-49826665D01*
X88051961Y-49826665D02*
X88004342Y-49826665D01*
X88004342Y-49826665D02*
X87909104Y-49874284D01*
X87909104Y-49874284D02*
X87861485Y-49969522D01*
X87861485Y-49969522D02*
X87861485Y-50112379D01*
X87861485Y-50112379D02*
X87813866Y-50207617D01*
X87813866Y-50207617D02*
X87718628Y-50255236D01*
X87718628Y-50255236D02*
X87671009Y-50255236D01*
X87671009Y-50255236D02*
X87575771Y-50207617D01*
X87575771Y-50207617D02*
X87528152Y-50112379D01*
X87528152Y-50112379D02*
X87528152Y-49969522D01*
X87528152Y-49969522D02*
X87575771Y-49874284D01*
X88099580Y-49398093D02*
X88147200Y-49350474D01*
X88147200Y-49350474D02*
X88194819Y-49398093D01*
X88194819Y-49398093D02*
X88147200Y-49445712D01*
X88147200Y-49445712D02*
X88099580Y-49398093D01*
X88099580Y-49398093D02*
X88194819Y-49398093D01*
X87575771Y-49398093D02*
X87623390Y-49350474D01*
X87623390Y-49350474D02*
X87671009Y-49398093D01*
X87671009Y-49398093D02*
X87623390Y-49445712D01*
X87623390Y-49445712D02*
X87575771Y-49398093D01*
X87575771Y-49398093D02*
X87671009Y-49398093D01*
X88194819Y-47636189D02*
X88194819Y-48207617D01*
X88194819Y-47921903D02*
X87194819Y-47921903D01*
X87194819Y-47921903D02*
X87337676Y-48017141D01*
X87337676Y-48017141D02*
X87432914Y-48112379D01*
X87432914Y-48112379D02*
X87480533Y-48207617D01*
X88099580Y-47207617D02*
X88147200Y-47159998D01*
X88147200Y-47159998D02*
X88194819Y-47207617D01*
X88194819Y-47207617D02*
X88147200Y-47255236D01*
X88147200Y-47255236D02*
X88099580Y-47207617D01*
X88099580Y-47207617D02*
X88194819Y-47207617D01*
X87194819Y-46255237D02*
X87194819Y-46731427D01*
X87194819Y-46731427D02*
X87671009Y-46779046D01*
X87671009Y-46779046D02*
X87623390Y-46731427D01*
X87623390Y-46731427D02*
X87575771Y-46636189D01*
X87575771Y-46636189D02*
X87575771Y-46398094D01*
X87575771Y-46398094D02*
X87623390Y-46302856D01*
X87623390Y-46302856D02*
X87671009Y-46255237D01*
X87671009Y-46255237D02*
X87766247Y-46207618D01*
X87766247Y-46207618D02*
X88004342Y-46207618D01*
X88004342Y-46207618D02*
X88099580Y-46255237D01*
X88099580Y-46255237D02*
X88147200Y-46302856D01*
X88147200Y-46302856D02*
X88194819Y-46398094D01*
X88194819Y-46398094D02*
X88194819Y-46636189D01*
X88194819Y-46636189D02*
X88147200Y-46731427D01*
X88147200Y-46731427D02*
X88099580Y-46779046D01*
X87194819Y-45874284D02*
X87194819Y-45207618D01*
X87194819Y-45207618D02*
X88194819Y-45636189D01*
X88194819Y-44826665D02*
X87528152Y-44826665D01*
X87623390Y-44826665D02*
X87575771Y-44779046D01*
X87575771Y-44779046D02*
X87528152Y-44683808D01*
X87528152Y-44683808D02*
X87528152Y-44540951D01*
X87528152Y-44540951D02*
X87575771Y-44445713D01*
X87575771Y-44445713D02*
X87671009Y-44398094D01*
X87671009Y-44398094D02*
X88194819Y-44398094D01*
X87671009Y-44398094D02*
X87575771Y-44350475D01*
X87575771Y-44350475D02*
X87528152Y-44255237D01*
X87528152Y-44255237D02*
X87528152Y-44112380D01*
X87528152Y-44112380D02*
X87575771Y-44017141D01*
X87575771Y-44017141D02*
X87671009Y-43969522D01*
X87671009Y-43969522D02*
X88194819Y-43969522D01*
X88194819Y-43493332D02*
X87528152Y-43493332D01*
X87623390Y-43493332D02*
X87575771Y-43445713D01*
X87575771Y-43445713D02*
X87528152Y-43350475D01*
X87528152Y-43350475D02*
X87528152Y-43207618D01*
X87528152Y-43207618D02*
X87575771Y-43112380D01*
X87575771Y-43112380D02*
X87671009Y-43064761D01*
X87671009Y-43064761D02*
X88194819Y-43064761D01*
X87671009Y-43064761D02*
X87575771Y-43017142D01*
X87575771Y-43017142D02*
X87528152Y-42921904D01*
X87528152Y-42921904D02*
X87528152Y-42779047D01*
X87528152Y-42779047D02*
X87575771Y-42683808D01*
X87575771Y-42683808D02*
X87671009Y-42636189D01*
X87671009Y-42636189D02*
X88194819Y-42636189D01*
M02*
