M48
; DRILL file {KiCad 8.0.5} date 2024-11-28T19:31:39+0000
; FORMAT={-:-/ absolute / inch / decimal}
; #@! TF.CreationDate,2024-11-28T19:31:39+00:00
; #@! TF.GenerationSoftware,Kicad,Pcbnew,8.0.5
; #@! TF.FileFunction,Plated,1,2,PTH
FMAT,2
INCH
; #@! TA.AperFunction,Plated,PTH,ViaDrill
T1C0.0118
; #@! TA.AperFunction,Plated,PTH,ComponentDrill
T2C0.0300
; #@! TA.AperFunction,Plated,PTH,ComponentDrill
T3C0.0354
; #@! TA.AperFunction,Plated,PTH,ComponentDrill
T4C0.0394
; #@! TA.AperFunction,Plated,PTH,ComponentDrill
T5C0.0402
; #@! TA.AperFunction,Plated,PTH,ComponentDrill
T6C0.0591
; #@! TA.AperFunction,Plated,PTH,ComponentDrill
T7C0.0787
%
G90
G05
T1
X2.7874Y-3.3089
X2.8299Y-2.2091
X2.8803Y-3.2409
X2.8953Y-3.4287
X2.9087Y-3.1071
X2.913Y-3.3882
X2.9389Y-3.3477
X2.9409Y-2.0354
X2.9604Y-2.2392
X2.9709Y-2.1949
X3.0067Y-2.2417
X3.0147Y-2.1086
X3.0697Y-3.8051
X3.0835Y-2.6484
X3.0843Y-2.3213
X3.0925Y-2.122
X3.1055Y-3.3543
X3.1118Y-3.2268
X3.137Y-2.2685
X3.1394Y-3.0172
X3.1465Y-2.8437
X3.1614Y-2.4075
X3.1705Y-3.5882
X3.1969Y-2.0634
X3.2028Y-2.652
X3.2079Y-2.8413
X3.2094Y-2.3354
X3.2252Y-2.5224
X3.2567Y-2.1339
X3.2917Y-3.5551
X3.3079Y-3.2327
X3.3102Y-2.0634
X3.3264Y-3.0827
X3.3346Y-2.9791
X3.3388Y-3.5671
X3.3898Y-3.2941
X3.3904Y-3.588
X3.3925Y-2.3984
X3.4098Y-2.9319
X3.4185Y-2.5386
X3.4189Y-3.0457
X3.4339Y-2.7094
X3.435Y-2.0657
X3.4441Y-2.8902
X3.4528Y-2.3756
X3.4823Y-3.7941
X3.4957Y-2.0862
X3.5004Y-3.7374
X3.5703Y-2.5254
X3.5965Y-2.1362
X3.6326Y-3.5501
X3.6587Y-3.4091
X3.6807Y-3.1894
X3.6839Y-3.2272
X3.7236Y-2.7094
X3.7386Y-2.3402
X3.7646Y-2.6059
X3.7657Y-3.6138
X3.7748Y-2.1657
X3.7791Y-3.0122
X3.7803Y-2.9319
X3.8846Y-3.1146
X3.8894Y-2.8697
X3.989Y-3.6528
X3.989Y-4.1827
X4.0496Y-5.6071
X4.1035Y-2.385
X4.1394Y-2.3866
X4.1594Y-3.3748
X4.1969Y-3.7591
X4.1996Y-2.2508
X4.2528Y-3.5902
X4.2689Y-4.7508
X4.2689Y-4.7825
X4.2701Y-4.815
X4.2858Y-2.8815
X4.2882Y-5.6028
X4.2966Y-3.7926
X4.3122Y-2.163
X4.3134Y-2.5185
X4.3177Y-5.2778
X4.3992Y-4.3992
X4.4265Y-2.3819
X4.461Y-2.2079
X4.55Y-2.2512
X4.5591Y-2.6453
X4.5642Y-3.0492
X4.5811Y-3.5795
X4.5976Y-2.9606
X4.5988Y-2.4193
X4.6323Y-2.2728
X4.6736Y-3.0469
X4.7097Y-2.8479
X4.7102Y-3.5591
X4.7421Y-3.2539
X4.7791Y-3.9677
X4.7886Y-2.8516
T2
X3.3614Y-3.8283
X3.3614Y-3.9283
X3.3614Y-4.0283
X3.3614Y-4.1283
X3.9614Y-3.8283
X3.9614Y-3.9283
X3.9614Y-4.0283
X3.9614Y-4.1283
X4.1528Y-3.8354
X4.1528Y-3.9354
X4.1528Y-4.0354
X4.1528Y-4.1354
X4.1528Y-4.2354
T3
X2.8488Y-2.3764
X2.8488Y-2.4551
X2.8488Y-2.5339
X3.8628Y-2.2163
X3.9628Y-2.2163
X4.8268Y-2.1492
X4.8268Y-2.228
X4.8268Y-2.3067
T4
X2.8419Y-2.1341
X2.9419Y-2.1341
X3.9539Y-2.6051
X3.9539Y-3.1957
X4.4827Y-4.2161
X4.4827Y-4.3161
X4.4827Y-4.4161
X4.4827Y-4.5161
X4.4827Y-4.6161
X4.4827Y-4.7161
X4.4827Y-4.8161
T5
X2.9598Y-2.7803
X2.9598Y-3.4803
X3.0598Y-2.7803
X3.0598Y-3.4803
X3.1598Y-2.7803
X3.1598Y-3.4803
X3.2598Y-2.7803
X3.2598Y-3.4803
X3.3598Y-2.7803
X3.3598Y-3.4803
X3.4598Y-2.7803
X3.4598Y-3.4803
X3.5598Y-2.7803
X3.5598Y-3.4803
X3.6598Y-2.7803
X3.6598Y-3.4803
X3.7598Y-2.7803
X3.7598Y-3.4803
X3.8598Y-2.7803
X3.8598Y-3.4803
X3.9598Y-2.7803
X3.9598Y-3.4803
X4.0598Y-2.7803
X4.0598Y-3.4803
X4.1598Y-2.7803
X4.1598Y-3.4803
X4.2598Y-2.7803
X4.2598Y-3.4803
X4.3598Y-2.7803
X4.3598Y-3.4803
X4.4598Y-2.7803
X4.4598Y-3.4803
X4.5598Y-2.7803
X4.5598Y-3.4803
X4.6598Y-2.7803
X4.6598Y-3.4803
X4.7598Y-2.7803
X4.7598Y-3.4803
X4.8598Y-2.7803
X4.8598Y-3.4803
T6
X2.8488Y-2.2937
X2.8488Y-2.6165
X4.8268Y-2.0665
X4.8268Y-2.3894
T7
X3.0961Y-4.0677
X3.0961Y-4.9646
X4.4433Y-4.0677
X4.4433Y-4.9646
M30
